# PlanForger OBJ export
mtllib 3.mtl

o FloorPlan
usemtl FloorPlan
v -5.327802 -0.001000 4.533405
v 5.137823 -0.001000 4.533405
v 5.137823 -0.001000 -3.194720
v -5.327802 -0.001000 -3.194720
vt 0.0 0.0
vt 1.0 0.0
vt 1.0 1.0
vt 0.0 1.0
f 1/1 2/2 3/3
f 1/1 3/3 4/4

o wall
usemtl wall
v -2.518427 0.000000 -3.122845
v -2.237177 0.000000 -3.122845
v -2.237177 0.000000 -1.191595
v -2.518427 0.000000 -1.191595
v -2.518427 2.800000 -3.122845
v -2.237177 2.800000 -3.122845
v -2.237177 2.800000 -1.191595
v -2.518427 2.800000 -1.191595
f 8 7 6
f 8 6 5
f 9 10 11
f 9 11 12
f 5 6 10
f 5 10 9
f 6 7 11
f 6 11 10
f 7 8 12
f 7 12 11
f 8 5 9
f 8 9 12

o wall
usemtl wall
v 3.687823 0.000000 -2.641595
v 5.037823 0.000000 -2.641595
v 5.037823 0.000000 -2.441595
v 3.687823 0.000000 -2.441595
v 3.687823 2.800000 -2.641595
v 5.037823 2.800000 -2.641595
v 5.037823 2.800000 -2.441595
v 3.687823 2.800000 -2.441595
f 16 15 14
f 16 14 13
f 17 18 19
f 17 19 20
f 13 14 18
f 13 18 17
f 14 15 19
f 14 19 18
f 15 16 20
f 15 20 19
f 16 13 17
f 16 17 20

o wall
usemtl wall
v -0.362177 0.000000 2.664655
v 3.725323 0.000000 2.664655
v 3.725323 0.000000 2.864655
v -0.362177 0.000000 2.864655
v -0.362177 2.800000 2.664655
v 3.725323 2.800000 2.664655
v 3.725323 2.800000 2.864655
v -0.362177 2.800000 2.864655
f 24 23 22
f 24 22 21
f 25 26 27
f 25 27 28
f 21 22 26
f 21 26 25
f 22 23 27
f 22 27 26
f 23 24 28
f 23 28 27
f 24 21 25
f 24 25 28

o wall
usemtl wall
v -2.255927 0.000000 2.645905
v -1.243427 0.000000 2.645905
v -1.243427 0.000000 2.845905
v -2.255927 0.000000 2.845905
v -2.255927 2.800000 2.645905
v -1.243427 2.800000 2.645905
v -1.243427 2.800000 2.845905
v -2.255927 2.800000 2.845905
f 32 31 30
f 32 30 29
f 33 34 35
f 33 35 36
f 29 30 34
f 29 34 33
f 30 31 35
f 30 35 34
f 31 32 36
f 31 36 35
f 32 29 33
f 32 33 36

o wall
usemtl wall
v -5.218427 0.000000 1.858405
v -1.243427 0.000000 1.858405
v -1.243427 0.000000 2.058405
v -5.218427 0.000000 2.058405
v -5.218427 2.800000 1.858405
v -1.243427 2.800000 1.858405
v -1.243427 2.800000 2.058405
v -5.218427 2.800000 2.058405
f 40 39 38
f 40 38 37
f 41 42 43
f 41 43 44
f 37 38 42
f 37 42 41
f 38 39 43
f 38 43 42
f 39 40 44
f 39 44 43
f 40 37 41
f 40 41 44

o wall
usemtl wall
v 3.550323 0.000000 -3.085345
v 3.750322 0.000000 -3.085345
v 3.750322 0.000000 -2.147845
v 3.550323 0.000000 -2.147845
v 3.550323 2.800000 -3.085345
v 3.750322 2.800000 -3.085345
v 3.750322 2.800000 -2.147845
v 3.550323 2.800000 -2.147845
f 48 47 46
f 48 46 45
f 49 50 51
f 49 51 52
f 45 46 50
f 45 50 49
f 46 47 51
f 46 51 50
f 47 48 52
f 47 52 51
f 48 45 49
f 48 49 52

o wall
usemtl wall
v 3.550323 0.000000 -2.147845
v 3.750322 0.000000 -2.147845
v 3.750322 0.000000 -0.760345
v 3.550323 0.000000 -0.760345
v 3.550323 0.900000 -2.147845
v 3.750322 0.900000 -2.147845
v 3.750322 0.900000 -0.760345
v 3.550323 0.900000 -0.760345
f 56 55 54
f 56 54 53
f 57 58 59
f 57 59 60
f 53 54 58
f 53 58 57
f 54 55 59
f 54 59 58
f 55 56 60
f 55 60 59
f 56 53 57
f 56 57 60

o wall
usemtl wall
v 3.550323 2.100000 -2.147845
v 3.750322 2.100000 -2.147845
v 3.750322 2.100000 -0.760345
v 3.550323 2.100000 -0.760345
v 3.550323 2.800000 -2.147845
v 3.750322 2.800000 -2.147845
v 3.750322 2.800000 -0.760345
v 3.550323 2.800000 -0.760345
f 64 63 62
f 64 62 61
f 65 66 67
f 65 67 68
f 61 62 66
f 61 66 65
f 62 63 67
f 62 67 66
f 63 64 68
f 63 68 67
f 64 61 65
f 64 65 68

o Window
usemtl Window
v 3.630322 0.900000 -2.147845
v 3.670323 0.900000 -2.147845
v 3.670323 0.900000 -0.760345
v 3.630322 0.900000 -0.760345
v 3.630322 2.100000 -2.147845
v 3.670323 2.100000 -2.147845
v 3.670323 2.100000 -0.760345
v 3.630322 2.100000 -0.760345
f 72 71 70
f 72 70 69
f 73 74 75
f 73 75 76
f 69 70 74
f 69 74 73
f 70 71 75
f 70 75 74
f 71 72 76
f 71 76 75
f 72 69 73
f 72 73 76

o wall
usemtl wall
v 3.550323 0.000000 -0.760345
v 3.750322 0.000000 -0.760345
v 3.750322 0.000000 -0.685345
v 3.550323 0.000000 -0.685345
v 3.550323 2.800000 -0.760345
v 3.750322 2.800000 -0.760345
v 3.750322 2.800000 -0.685345
v 3.550323 2.800000 -0.685345
f 80 79 78
f 80 78 77
f 81 82 83
f 81 83 84
f 77 78 82
f 77 82 81
f 78 79 83
f 78 83 82
f 79 80 84
f 79 84 83
f 80 77 81
f 80 81 84

o wall
usemtl wall
v 3.550323 2.100000 -0.685345
v 3.750322 2.100000 -0.685345
v 3.750322 2.100000 0.008405
v 3.550323 2.100000 0.008405
v 3.550323 2.800000 -0.685345
v 3.750322 2.800000 -0.685345
v 3.750322 2.800000 0.008405
v 3.550323 2.800000 0.008405
f 88 87 86
f 88 86 85
f 89 90 91
f 89 91 92
f 85 86 90
f 85 90 89
f 86 87 91
f 86 91 90
f 87 88 92
f 87 92 91
f 88 85 89
f 88 89 92

o Door
usemtl Door
v 3.625323 0.000000 -0.685345
v 3.675323 0.000000 -0.685345
v 3.675323 0.000000 0.008405
v 3.625323 0.000000 0.008405
v 3.625323 2.100000 -0.685345
v 3.675323 2.100000 -0.685345
v 3.675323 2.100000 0.008405
v 3.625323 2.100000 0.008405
f 96 95 94
f 96 94 93
f 97 98 99
f 97 99 100
f 93 94 98
f 93 98 97
f 94 95 99
f 94 99 98
f 95 96 100
f 95 100 99
f 96 93 97
f 96 97 100

o wall
usemtl wall
v 3.550323 0.000000 0.008405
v 3.750322 0.000000 0.008405
v 3.750322 0.000000 0.983405
v 3.550323 0.000000 0.983405
v 3.550323 2.800000 0.008405
v 3.750322 2.800000 0.008405
v 3.750322 2.800000 0.983405
v 3.550323 2.800000 0.983405
f 104 103 102
f 104 102 101
f 105 106 107
f 105 107 108
f 101 102 106
f 101 106 105
f 102 103 107
f 102 107 106
f 103 104 108
f 103 108 107
f 104 101 105
f 104 105 108

o wall
usemtl wall
v 3.550323 0.000000 0.983405
v 3.750322 0.000000 0.983405
v 3.750322 0.000000 2.164655
v 3.550323 0.000000 2.164655
v 3.550323 0.900000 0.983405
v 3.750322 0.900000 0.983405
v 3.750322 0.900000 2.164655
v 3.550323 0.900000 2.164655
f 112 111 110
f 112 110 109
f 113 114 115
f 113 115 116
f 109 110 114
f 109 114 113
f 110 111 115
f 110 115 114
f 111 112 116
f 111 116 115
f 112 109 113
f 112 113 116

o wall
usemtl wall
v 3.550323 2.100000 0.983405
v 3.750322 2.100000 0.983405
v 3.750322 2.100000 2.164655
v 3.550323 2.100000 2.164655
v 3.550323 2.800000 0.983405
v 3.750322 2.800000 0.983405
v 3.750322 2.800000 2.164655
v 3.550323 2.800000 2.164655
f 120 119 118
f 120 118 117
f 121 122 123
f 121 123 124
f 117 118 122
f 117 122 121
f 118 119 123
f 118 123 122
f 119 120 124
f 119 124 123
f 120 117 121
f 120 121 124

o Window
usemtl Window
v 3.630322 0.900000 0.983405
v 3.670323 0.900000 0.983405
v 3.670323 0.900000 2.164655
v 3.630322 0.900000 2.164655
v 3.630322 2.100000 0.983405
v 3.670323 2.100000 0.983405
v 3.670323 2.100000 2.164655
v 3.630322 2.100000 2.164655
f 128 127 126
f 128 126 125
f 129 130 131
f 129 131 132
f 125 126 130
f 125 130 129
f 126 127 131
f 126 131 130
f 127 128 132
f 127 132 131
f 128 125 129
f 128 129 132

o wall
usemtl wall
v 3.550323 0.000000 2.164655
v 3.750322 0.000000 2.164655
v 3.750322 0.000000 2.820905
v 3.550323 0.000000 2.820905
v 3.550323 2.800000 2.164655
v 3.750322 2.800000 2.164655
v 3.750322 2.800000 2.820905
v 3.550323 2.800000 2.820905
f 136 135 134
f 136 134 133
f 137 138 139
f 137 139 140
f 133 134 138
f 133 138 137
f 134 135 139
f 134 139 138
f 135 136 140
f 135 140 139
f 136 133 137
f 136 137 140

o wall
usemtl wall
v -0.405927 0.000000 2.708405
v -0.205927 0.000000 2.708405
v -0.205927 0.000000 4.470905
v -0.405927 0.000000 4.470905
v -0.405927 2.800000 2.708405
v -0.205927 2.800000 2.708405
v -0.205927 2.800000 4.470905
v -0.405927 2.800000 4.470905
f 144 143 142
f 144 142 141
f 145 146 147
f 145 147 148
f 141 142 146
f 141 146 145
f 142 143 147
f 142 147 146
f 143 144 148
f 143 148 147
f 144 141 145
f 144 145 148

o wall
usemtl wall
v 0.406573 0.000000 0.583405
v 3.219073 0.000000 0.583405
v 3.219073 0.000000 0.783405
v 0.406573 0.000000 0.783405
v 0.406573 2.800000 0.583405
v 3.219073 2.800000 0.583405
v 3.219073 2.800000 0.783405
v 0.406573 2.800000 0.783405
f 152 151 150
f 152 150 149
f 153 154 155
f 153 155 156
f 149 150 154
f 149 154 153
f 150 151 155
f 150 155 154
f 151 152 156
f 151 156 155
f 152 149 153
f 152 153 156

o wall
usemtl wall
v 3.687823 0.000000 0.245905
v 5.056573 0.000000 0.245905
v 5.056573 0.000000 0.445905
v 3.687823 0.000000 0.445905
v 3.687823 2.800000 0.245905
v 5.056573 2.800000 0.245905
v 5.056573 2.800000 0.445905
v 3.687823 2.800000 0.445905
f 160 159 158
f 160 158 157
f 161 162 163
f 161 163 164
f 157 158 162
f 157 162 161
f 158 159 163
f 158 163 162
f 159 160 164
f 159 164 163
f 160 157 161
f 160 161 164

o wall
usemtl wall
v -0.837177 0.000000 -3.141595
v -0.637177 0.000000 -3.141595
v -0.637177 0.000000 -1.210345
v -0.837177 0.000000 -1.210345
v -0.837177 2.800000 -3.141595
v -0.637177 2.800000 -3.141595
v -0.637177 2.800000 -1.210345
v -0.837177 2.800000 -1.210345
f 168 167 166
f 168 166 165
f 169 170 171
f 169 171 172
f 165 166 170
f 165 170 169
f 166 167 171
f 166 171 170
f 167 168 172
f 167 172 171
f 168 165 169
f 168 169 172

o wall
usemtl wall
v -2.480927 0.000000 -1.347845
v -1.712177 0.000000 -1.347845
v -1.712177 0.000000 -1.147845
v -2.480927 0.000000 -1.147845
v -2.480927 2.800000 -1.347845
v -1.712177 2.800000 -1.347845
v -1.712177 2.800000 -1.147845
v -2.480927 2.800000 -1.147845
f 176 175 174
f 176 174 173
f 177 178 179
f 177 179 180
f 173 174 178
f 173 178 177
f 174 175 179
f 174 179 178
f 175 176 180
f 175 180 179
f 176 173 177
f 176 177 180

o wall
usemtl wall
v -1.712177 2.100000 -1.347845
v -1.112177 2.100000 -1.347845
v -1.112177 2.100000 -1.147845
v -1.712177 2.100000 -1.147845
v -1.712177 2.800000 -1.347845
v -1.112177 2.800000 -1.347845
v -1.112177 2.800000 -1.147845
v -1.712177 2.800000 -1.147845
f 184 183 182
f 184 182 181
f 185 186 187
f 185 187 188
f 181 182 186
f 181 186 185
f 182 183 187
f 182 187 186
f 183 184 188
f 183 188 187
f 184 181 185
f 184 185 188

o Door
usemtl Door
v -1.712177 0.000000 -1.272845
v -1.112177 0.000000 -1.272845
v -1.112177 0.000000 -1.222845
v -1.712177 0.000000 -1.222845
v -1.712177 2.100000 -1.272845
v -1.112177 2.100000 -1.272845
v -1.112177 2.100000 -1.222845
v -1.712177 2.100000 -1.222845
f 192 191 190
f 192 190 189
f 193 194 195
f 193 195 196
f 189 190 194
f 189 194 193
f 190 191 195
f 190 195 194
f 191 192 196
f 191 196 195
f 192 189 193
f 192 193 196

o wall
usemtl wall
v -1.112177 0.000000 -1.347845
v -0.662177 0.000000 -1.347845
v -0.662177 0.000000 -1.147845
v -1.112177 0.000000 -1.147845
v -1.112177 2.800000 -1.347845
v -0.662177 2.800000 -1.347845
v -0.662177 2.800000 -1.147845
v -1.112177 2.800000 -1.147845
f 200 199 198
f 200 198 197
f 201 202 203
f 201 203 204
f 197 198 202
f 197 202 201
f 198 199 203
f 198 203 202
f 199 200 204
f 199 204 203
f 200 197 201
f 200 201 204

o wall
usemtl wall
v -0.662177 2.100000 -1.347845
v -0.155927 2.100000 -1.347845
v -0.155927 2.100000 -1.147845
v -0.662177 2.100000 -1.147845
v -0.662177 2.800000 -1.347845
v -0.155927 2.800000 -1.347845
v -0.155927 2.800000 -1.147845
v -0.662177 2.800000 -1.147845
f 208 207 206
f 208 206 205
f 209 210 211
f 209 211 212
f 205 206 210
f 205 210 209
f 206 207 211
f 206 211 210
f 207 208 212
f 207 212 211
f 208 205 209
f 208 209 212

o Door
usemtl Door
v -0.662177 0.000000 -1.272845
v -0.155927 0.000000 -1.272845
v -0.155927 0.000000 -1.222845
v -0.662177 0.000000 -1.222845
v -0.662177 2.100000 -1.272845
v -0.155927 2.100000 -1.272845
v -0.155927 2.100000 -1.222845
v -0.662177 2.100000 -1.222845
f 216 215 214
f 216 214 213
f 217 218 219
f 217 219 220
f 213 214 218
f 213 218 217
f 214 215 219
f 214 219 218
f 215 216 220
f 215 220 219
f 216 213 217
f 216 217 220

o wall
usemtl wall
v -0.155927 0.000000 -1.347845
v 0.219073 0.000000 -1.347845
v 0.219073 0.000000 -1.147845
v -0.155927 0.000000 -1.147845
v -0.155927 2.800000 -1.347845
v 0.219073 2.800000 -1.347845
v 0.219073 2.800000 -1.147845
v -0.155927 2.800000 -1.147845
f 224 223 222
f 224 222 221
f 225 226 227
f 225 227 228
f 221 222 226
f 221 226 225
f 222 223 227
f 222 227 226
f 223 224 228
f 223 228 227
f 224 221 225
f 224 225 228

o wall
usemtl wall
v -1.877802 0.000000 -1.266595
v -1.677802 0.000000 -1.266595
v -1.677802 0.000000 -1.135345
v -1.877802 0.000000 -1.135345
v -1.877802 2.800000 -1.266595
v -1.677802 2.800000 -1.266595
v -1.677802 2.800000 -1.135345
v -1.877802 2.800000 -1.135345
f 232 231 230
f 232 230 229
f 233 234 235
f 233 235 236
f 229 230 234
f 229 234 233
f 230 231 235
f 230 235 234
f 231 232 236
f 231 236 235
f 232 229 233
f 232 233 236

o wall
usemtl wall
v -1.877802 2.100000 -1.135345
v -1.677802 2.100000 -1.135345
v -1.677802 2.100000 -0.535345
v -1.877802 2.100000 -0.535345
v -1.877802 2.800000 -1.135345
v -1.677802 2.800000 -1.135345
v -1.677802 2.800000 -0.535345
v -1.877802 2.800000 -0.535345
f 240 239 238
f 240 238 237
f 241 242 243
f 241 243 244
f 237 238 242
f 237 242 241
f 238 239 243
f 238 243 242
f 239 240 244
f 239 244 243
f 240 237 241
f 240 241 244

o Door
usemtl Door
v -1.802802 0.000000 -1.135345
v -1.752802 0.000000 -1.135345
v -1.752802 0.000000 -0.535345
v -1.802802 0.000000 -0.535345
v -1.802802 2.100000 -1.135345
v -1.752802 2.100000 -1.135345
v -1.752802 2.100000 -0.535345
v -1.802802 2.100000 -0.535345
f 248 247 246
f 248 246 245
f 249 250 251
f 249 251 252
f 245 246 250
f 245 250 249
f 246 247 251
f 246 251 250
f 247 248 252
f 247 252 251
f 248 245 249
f 248 249 252

o wall
usemtl wall
v -1.877802 0.000000 -0.535345
v -1.677802 0.000000 -0.535345
v -1.677802 0.000000 -0.347845
v -1.877802 0.000000 -0.347845
v -1.877802 2.800000 -0.535345
v -1.677802 2.800000 -0.535345
v -1.677802 2.800000 -0.347845
v -1.877802 2.800000 -0.347845
f 256 255 254
f 256 254 253
f 257 258 259
f 257 259 260
f 253 254 258
f 253 258 257
f 254 255 259
f 254 259 258
f 255 256 260
f 255 260 259
f 256 253 257
f 256 257 260

o wall
usemtl wall
v -1.877802 2.100000 -0.347845
v -1.677802 2.100000 -0.347845
v -1.677802 2.100000 0.289655
v -1.877802 2.100000 0.289655
v -1.877802 2.800000 -0.347845
v -1.677802 2.800000 -0.347845
v -1.677802 2.800000 0.289655
v -1.877802 2.800000 0.289655
f 264 263 262
f 264 262 261
f 265 266 267
f 265 267 268
f 261 262 266
f 261 266 265
f 262 263 267
f 262 267 266
f 263 264 268
f 263 268 267
f 264 261 265
f 264 265 268

o Door
usemtl Door
v -1.802802 0.000000 -0.347845
v -1.752802 0.000000 -0.347845
v -1.752802 0.000000 0.289655
v -1.802802 0.000000 0.289655
v -1.802802 2.100000 -0.347845
v -1.752802 2.100000 -0.347845
v -1.752802 2.100000 0.289655
v -1.802802 2.100000 0.289655
f 272 271 270
f 272 270 269
f 273 274 275
f 273 275 276
f 269 270 274
f 269 274 273
f 270 271 275
f 270 275 274
f 271 272 276
f 271 276 275
f 272 269 273
f 272 273 276

o wall
usemtl wall
v -1.877802 0.000000 0.289655
v -1.677802 0.000000 0.289655
v -1.677802 0.000000 0.345905
v -1.877802 0.000000 0.345905
v -1.877802 2.800000 0.289655
v -1.677802 2.800000 0.289655
v -1.677802 2.800000 0.345905
v -1.877802 2.800000 0.345905
f 280 279 278
f 280 278 277
f 281 282 283
f 281 283 284
f 277 278 282
f 277 282 281
f 278 279 283
f 278 283 282
f 279 280 284
f 279 284 283
f 280 277 281
f 280 281 284

o wall
usemtl wall
v 0.100323 0.000000 -2.972845
v 0.300323 0.000000 -2.972845
v 0.300323 0.000000 0.814655
v 0.100323 0.000000 0.814655
v 0.100323 2.800000 -2.972845
v 0.300323 2.800000 -2.972845
v 0.300323 2.800000 0.814655
v 0.100323 2.800000 0.814655
f 288 287 286
f 288 286 285
f 289 290 291
f 289 291 292
f 285 286 290
f 285 290 289
f 286 287 291
f 286 291 290
f 287 288 292
f 287 292 291
f 288 285 289
f 288 289 292

o wall
usemtl wall
v 0.100323 2.100000 0.814655
v 0.300323 2.100000 0.814655
v 0.300323 2.100000 1.470905
v 0.100323 2.100000 1.470905
v 0.100323 2.800000 0.814655
v 0.300323 2.800000 0.814655
v 0.300323 2.800000 1.470905
v 0.100323 2.800000 1.470905
f 296 295 294
f 296 294 293
f 297 298 299
f 297 299 300
f 293 294 298
f 293 298 297
f 294 295 299
f 294 299 298
f 295 296 300
f 295 300 299
f 296 293 297
f 296 297 300

o Door
usemtl Door
v 0.175323 0.000000 0.814655
v 0.225323 0.000000 0.814655
v 0.225323 0.000000 1.470905
v 0.175323 0.000000 1.470905
v 0.175323 2.100000 0.814655
v 0.225323 2.100000 0.814655
v 0.225323 2.100000 1.470905
v 0.175323 2.100000 1.470905
f 304 303 302
f 304 302 301
f 305 306 307
f 305 307 308
f 301 302 306
f 301 306 305
f 302 303 307
f 302 307 306
f 303 304 308
f 303 308 307
f 304 301 305
f 304 305 308

o wall
usemtl wall
v 0.100323 0.000000 1.470905
v 0.300323 0.000000 1.470905
v 0.300323 0.000000 2.633405
v 0.100323 0.000000 2.633405
v 0.100323 2.800000 1.470905
v 0.300323 2.800000 1.470905
v 0.300323 2.800000 2.633405
v 0.100323 2.800000 2.633405
f 312 311 310
f 312 310 309
f 313 314 315
f 313 315 316
f 309 310 314
f 309 314 313
f 310 311 315
f 310 315 314
f 311 312 316
f 311 316 315
f 312 309 313
f 312 313 316

o wall
usemtl wall
v -2.318427 0.000000 2.689655
v -2.118427 0.000000 2.689655
v -2.118427 0.000000 4.433405
v -2.318427 0.000000 4.433405
v -2.318427 2.800000 2.689655
v -2.118427 2.800000 2.689655
v -2.118427 2.800000 4.433405
v -2.318427 2.800000 4.433405
f 320 319 318
f 320 318 317
f 321 322 323
f 321 323 324
f 317 318 322
f 317 322 321
f 318 319 323
f 318 323 322
f 319 320 324
f 319 324 323
f 320 317 321
f 320 321 324

o wall
usemtl wall
v -4.937177 0.000000 -0.541595
v -2.124677 0.000000 -0.541595
v -2.124677 0.000000 -0.341595
v -4.937177 0.000000 -0.341595
v -4.937177 2.800000 -0.541595
v -2.124677 2.800000 -0.541595
v -2.124677 2.800000 -0.341595
v -4.937177 2.800000 -0.341595
f 328 327 326
f 328 326 325
f 329 330 331
f 329 331 332
f 325 326 330
f 325 330 329
f 326 327 331
f 326 331 330
f 327 328 332
f 327 332 331
f 328 325 329
f 328 329 332

o wall
usemtl wall
v -2.255927 0.000000 3.702155
v -1.918427 0.000000 3.702155
v -1.918427 0.000000 4.470905
v -2.255927 0.000000 4.470905
v -2.255927 2.800000 3.702155
v -1.918427 2.800000 3.702155
v -1.918427 2.800000 4.470905
v -2.255927 2.800000 4.470905
f 336 335 334
f 336 334 333
f 337 338 339
f 337 339 340
f 333 334 338
f 333 338 337
f 334 335 339
f 334 339 338
f 335 336 340
f 335 340 339
f 336 333 337
f 336 337 340

o wall
usemtl wall
v -5.327802 0.000000 -2.785345
v -5.127802 0.000000 -2.785345
v -5.127802 0.000000 -2.204095
v -5.327802 0.000000 -2.204095
v -5.327802 2.800000 -2.785345
v -5.127802 2.800000 -2.785345
v -5.127802 2.800000 -2.204095
v -5.327802 2.800000 -2.204095
f 344 343 342
f 344 342 341
f 345 346 347
f 345 347 348
f 341 342 346
f 341 346 345
f 342 343 347
f 342 347 346
f 343 344 348
f 343 348 347
f 344 341 345
f 344 345 348

o wall
usemtl wall
v -5.327802 0.000000 -2.204095
v -5.127802 0.000000 -2.204095
v -5.127802 0.000000 -1.004095
v -5.327802 0.000000 -1.004095
v -5.327802 0.900000 -2.204095
v -5.127802 0.900000 -2.204095
v -5.127802 0.900000 -1.004095
v -5.327802 0.900000 -1.004095
f 352 351 350
f 352 350 349
f 353 354 355
f 353 355 356
f 349 350 354
f 349 354 353
f 350 351 355
f 350 355 354
f 351 352 356
f 351 356 355
f 352 349 353
f 352 353 356

o wall
usemtl wall
v -5.327802 2.100000 -2.204095
v -5.127802 2.100000 -2.204095
v -5.127802 2.100000 -1.004095
v -5.327802 2.100000 -1.004095
v -5.327802 2.800000 -2.204095
v -5.127802 2.800000 -2.204095
v -5.127802 2.800000 -1.004095
v -5.327802 2.800000 -1.004095
f 360 359 358
f 360 358 357
f 361 362 363
f 361 363 364
f 357 358 362
f 357 362 361
f 358 359 363
f 358 363 362
f 359 360 364
f 359 364 363
f 360 357 361
f 360 361 364

o Window
usemtl Window
v -5.247802 0.900000 -2.204095
v -5.207802 0.900000 -2.204095
v -5.207802 0.900000 -1.004095
v -5.247802 0.900000 -1.004095
v -5.247802 2.100000 -2.204095
v -5.207802 2.100000 -2.204095
v -5.207802 2.100000 -1.004095
v -5.247802 2.100000 -1.004095
f 368 367 366
f 368 366 365
f 369 370 371
f 369 371 372
f 365 366 370
f 365 370 369
f 366 367 371
f 366 371 370
f 367 368 372
f 367 372 371
f 368 365 369
f 368 369 372

o wall
usemtl wall
v -5.327802 0.000000 -1.004095
v -5.127802 0.000000 -1.004095
v -5.127802 0.000000 0.570905
v -5.327802 0.000000 0.570905
v -5.327802 2.800000 -1.004095
v -5.127802 2.800000 -1.004095
v -5.127802 2.800000 0.570905
v -5.327802 2.800000 0.570905
f 376 375 374
f 376 374 373
f 377 378 379
f 377 379 380
f 373 374 378
f 373 378 377
f 374 375 379
f 374 379 378
f 375 376 380
f 375 380 379
f 376 373 377
f 376 377 380

o wall
usemtl wall
v -5.327802 0.000000 0.570905
v -5.127802 0.000000 0.570905
v -5.127802 0.000000 1.789655
v -5.327802 0.000000 1.789655
v -5.327802 0.900000 0.570905
v -5.127802 0.900000 0.570905
v -5.127802 0.900000 1.789655
v -5.327802 0.900000 1.789655
f 384 383 382
f 384 382 381
f 385 386 387
f 385 387 388
f 381 382 386
f 381 386 385
f 382 383 387
f 382 387 386
f 383 384 388
f 383 388 387
f 384 381 385
f 384 385 388

o wall
usemtl wall
v -5.327802 2.100000 0.570905
v -5.127802 2.100000 0.570905
v -5.127802 2.100000 1.789655
v -5.327802 2.100000 1.789655
v -5.327802 2.800000 0.570905
v -5.127802 2.800000 0.570905
v -5.127802 2.800000 1.789655
v -5.327802 2.800000 1.789655
f 392 391 390
f 392 390 389
f 393 394 395
f 393 395 396
f 389 390 394
f 389 394 393
f 390 391 395
f 390 395 394
f 391 392 396
f 391 396 395
f 392 389 393
f 392 393 396

o Window
usemtl Window
v -5.247802 0.900000 0.570905
v -5.207802 0.900000 0.570905
v -5.207802 0.900000 1.789655
v -5.247802 0.900000 1.789655
v -5.247802 2.100000 0.570905
v -5.207802 2.100000 0.570905
v -5.207802 2.100000 1.789655
v -5.247802 2.100000 1.789655
f 400 399 398
f 400 398 397
f 401 402 403
f 401 403 404
f 397 398 402
f 397 402 401
f 398 399 403
f 398 403 402
f 399 400 404
f 399 404 403
f 400 397 401
f 400 401 404

o wall
usemtl wall
v -5.327802 0.000000 1.789655
v -5.127802 0.000000 1.789655
v -5.127802 0.000000 2.220905
v -5.327802 0.000000 2.220905
v -5.327802 2.800000 1.789655
v -5.127802 2.800000 1.789655
v -5.127802 2.800000 2.220905
v -5.327802 2.800000 2.220905
f 408 407 406
f 408 406 405
f 409 410 411
f 409 411 412
f 405 406 410
f 405 410 409
f 406 407 411
f 406 411 410
f 407 408 412
f 407 412 411
f 408 405 409
f 408 409 412

o wall
usemtl wall
v -5.327802 0.000000 2.220905
v -5.127802 0.000000 2.220905
v -5.127802 0.000000 2.820905
v -5.327802 0.000000 2.820905
v -5.327802 0.900000 2.220905
v -5.127802 0.900000 2.220905
v -5.127802 0.900000 2.820905
v -5.327802 0.900000 2.820905
f 416 415 414
f 416 414 413
f 417 418 419
f 417 419 420
f 413 414 418
f 413 418 417
f 414 415 419
f 414 419 418
f 415 416 420
f 415 420 419
f 416 413 417
f 416 417 420

o wall
usemtl wall
v -5.327802 2.100000 2.220905
v -5.127802 2.100000 2.220905
v -5.127802 2.100000 2.820905
v -5.327802 2.100000 2.820905
v -5.327802 2.800000 2.220905
v -5.127802 2.800000 2.220905
v -5.127802 2.800000 2.820905
v -5.327802 2.800000 2.820905
f 424 423 422
f 424 422 421
f 425 426 427
f 425 427 428
f 421 422 426
f 421 426 425
f 422 423 427
f 422 427 426
f 423 424 428
f 423 428 427
f 424 421 425
f 424 425 428

o Window
usemtl Window
v -5.247802 0.900000 2.220905
v -5.207802 0.900000 2.220905
v -5.207802 0.900000 3.402155
v -5.247802 0.900000 3.402155
v -5.247802 2.100000 2.220905
v -5.207802 2.100000 2.220905
v -5.207802 2.100000 3.402155
v -5.247802 2.100000 3.402155
f 432 431 430
f 432 430 429
f 433 434 435
f 433 435 436
f 429 430 434
f 429 434 433
f 430 431 435
f 430 435 434
f 431 432 436
f 431 436 435
f 432 429 433
f 432 433 436

o wall
usemtl wall
v -0.137177 0.000000 -3.141595
v 0.237823 0.000000 -3.141595
v 0.237823 0.000000 -2.504095
v -0.137177 0.000000 -2.504095
v -0.137177 2.800000 -3.141595
v 0.237823 2.800000 -3.141595
v 0.237823 2.800000 -2.504095
v -0.137177 2.800000 -2.504095
f 440 439 438
f 440 438 437
f 441 442 443
f 441 443 444
f 437 438 442
f 437 442 441
f 438 439 443
f 438 443 442
f 439 440 444
f 439 444 443
f 440 437 441
f 440 441 444

o wall
usemtl wall
v 0.500323 0.000000 -3.194720
v 3.312823 0.000000 -3.194720
v 3.312823 0.000000 -2.994720
v 0.500323 0.000000 -2.994720
v 0.500323 2.800000 -3.194720
v 3.312823 2.800000 -3.194720
v 3.312823 2.800000 -2.994720
v 0.500323 2.800000 -2.994720
f 448 447 446
f 448 446 445
f 449 450 451
f 449 451 452
f 445 446 450
f 445 450 449
f 446 447 451
f 446 451 450
f 447 448 452
f 447 452 451
f 448 445 449
f 448 449 452

o wall
usemtl wall
v 4.937823 0.000000 -2.522845
v 5.137823 0.000000 -2.522845
v 5.137823 0.000000 0.345905
v 4.937823 0.000000 0.345905
v 4.937823 2.800000 -2.522845
v 5.137823 2.800000 -2.522845
v 5.137823 2.800000 0.345905
v 4.937823 2.800000 0.345905
f 456 455 454
f 456 454 453
f 457 458 459
f 457 459 460
f 453 454 458
f 453 458 457
f 454 455 459
f 454 459 458
f 455 456 460
f 455 460 459
f 456 453 457
f 456 457 460

o wall
usemtl wall
v -1.380927 0.000000 1.977155
v -1.180927 0.000000 1.977155
v -1.180927 0.000000 2.089655
v -1.380927 0.000000 2.089655
v -1.380927 2.800000 1.977155
v -1.180927 2.800000 1.977155
v -1.180927 2.800000 2.089655
v -1.380927 2.800000 2.089655
f 464 463 462
f 464 462 461
f 465 466 467
f 465 467 468
f 461 462 466
f 461 466 465
f 462 463 467
f 462 467 466
f 463 464 468
f 463 468 467
f 464 461 465
f 464 465 468

o wall
usemtl wall
v -1.380927 2.100000 2.089655
v -1.180927 2.100000 2.089655
v -1.180927 2.100000 2.689655
v -1.380927 2.100000 2.689655
v -1.380927 2.800000 2.089655
v -1.180927 2.800000 2.089655
v -1.180927 2.800000 2.689655
v -1.380927 2.800000 2.689655
f 472 471 470
f 472 470 469
f 473 474 475
f 473 475 476
f 469 470 474
f 469 474 473
f 470 471 475
f 470 475 474
f 471 472 476
f 471 476 475
f 472 469 473
f 472 473 476

o Door
usemtl Door
v -1.305927 0.000000 2.089655
v -1.255927 0.000000 2.089655
v -1.255927 0.000000 2.689655
v -1.305927 0.000000 2.689655
v -1.305927 2.100000 2.089655
v -1.255927 2.100000 2.089655
v -1.255927 2.100000 2.689655
v -1.305927 2.100000 2.689655
f 480 479 478
f 480 478 477
f 481 482 483
f 481 483 484
f 477 478 482
f 477 482 481
f 478 479 483
f 478 483 482
f 479 480 484
f 479 484 483
f 480 477 481
f 480 481 484

o wall
usemtl wall
v -1.380927 0.000000 2.689655
v -1.180927 0.000000 2.689655
v -1.180927 0.000000 2.839655
v -1.380927 0.000000 2.839655
v -1.380927 2.800000 2.689655
v -1.180927 2.800000 2.689655
v -1.180927 2.800000 2.839655
v -1.380927 2.800000 2.839655
f 488 487 486
f 488 486 485
f 489 490 491
f 489 491 492
f 485 486 490
f 485 490 489
f 486 487 491
f 486 491 490
f 487 488 492
f 487 492 491
f 488 485 489
f 488 489 492

o wall
usemtl wall
v -1.380927 2.100000 2.839655
v -1.180927 2.100000 2.839655
v -1.180927 2.100000 3.327155
v -1.380927 2.100000 3.327155
v -1.380927 2.800000 2.839655
v -1.180927 2.800000 2.839655
v -1.180927 2.800000 3.327155
v -1.380927 2.800000 3.327155
f 496 495 494
f 496 494 493
f 497 498 499
f 497 499 500
f 493 494 498
f 493 498 497
f 494 495 499
f 494 499 498
f 495 496 500
f 495 500 499
f 496 493 497
f 496 497 500

o Door
usemtl Door
v -1.305927 0.000000 2.839655
v -1.255927 0.000000 2.839655
v -1.255927 0.000000 3.327155
v -1.305927 0.000000 3.327155
v -1.305927 2.100000 2.839655
v -1.255927 2.100000 2.839655
v -1.255927 2.100000 3.327155
v -1.305927 2.100000 3.327155
f 504 503 502
f 504 502 501
f 505 506 507
f 505 507 508
f 501 502 506
f 501 506 505
f 502 503 507
f 502 507 506
f 503 504 508
f 503 508 507
f 504 501 505
f 504 505 508

o wall
usemtl wall
v -1.380927 0.000000 3.327155
v -1.180927 0.000000 3.327155
v -1.180927 0.000000 4.470905
v -1.380927 0.000000 4.470905
v -1.380927 2.800000 3.327155
v -1.180927 2.800000 3.327155
v -1.180927 2.800000 4.470905
v -1.380927 2.800000 4.470905
f 512 511 510
f 512 510 509
f 513 514 515
f 513 515 516
f 509 510 514
f 509 514 513
f 510 511 515
f 510 515 514
f 511 512 516
f 511 516 515
f 512 509 513
f 512 513 516

o door
usemtl door
v -1.130927 0.000000 4.333405
v -0.399677 0.000000 4.333405
v -0.399677 0.000000 4.533405
v -1.130927 0.000000 4.533405
v -1.130927 2.100000 4.333405
v -0.399677 2.100000 4.333405
v -0.399677 2.100000 4.533405
v -1.130927 2.100000 4.533405
f 520 519 518
f 520 518 517
f 521 522 523
f 521 523 524
f 517 518 522
f 517 522 521
f 518 519 523
f 518 523 522
f 519 520 524
f 519 524 523
f 520 517 521
f 520 521 524

