{
  "asset": {
    "version": "2.0",
    "generator": "PlanForger"
  },
  "scene": 0,
  "scenes": [
    {
      "nodes": [
        0,
        1
      ]
    }
  ],
  "nodes": [
    {
      "mesh": 0,
      "name": "InteriorFloor"
    },
    {
      "mesh": 1,
      "name": "tmp"
    }
  ],
  "meshes": [
    {
      "name": "InteriorFloor",
      "primitives": [
        {
          "attributes": {
            "POSITION": 0,
            "TEXCOORD_0": 1
          },
          "indices": 2,
          "mode": 4
        }
      ]
    },
    {
      "name": "tmp",
      "primitives": [
        {
          "attributes": {
            "POSITION": 3,
            "COLOR_0": 4
          },
          "indices": 5,
          "mode": 4,
          "material": 0
        }
      ]
    }
  ],
  "accessors": [
    {
      "bufferView": 0,
      "componentType": 5126,
      "count": 4,
      "type": "VEC3",
      "min": [
        -2.698685884475708,
        -1.9171133041381836,
        -0.0010000000474974513
      ],
      "max": [
        2.8106894493103027,
        5.7203874588012695,
        -0.0010000000474974513
      ]
    },
    {
      "bufferView": 1,
      "componentType": 5126,
      "count": 4,
      "type": "VEC2"
    },
    {
      "bufferView": 2,
      "componentType": 5125,
      "count": 6,
      "type": "SCALAR"
    },
    {
      "bufferView": 3,
      "componentType": 5126,
      "count": 328,
      "type": "VEC3",
      "min": [
        -2.698685884475708,
        -1.9171133041381836,
        0.0
      ],
      "max": [
        2.8106894493103027,
        5.7203874588012695,
        2.799999952316284
      ]
    },
    {
      "bufferView": 4,
      "componentType": 5126,
      "count": 328,
      "type": "VEC3"
    },
    {
      "bufferView": 5,
      "componentType": 5125,
      "count": 1476,
      "type": "SCALAR"
    }
  ],
  "bufferViews": [
    {
      "buffer": 0,
      "byteOffset": 0,
      "byteLength": 48,
      "target": 34962
    },
    {
      "buffer": 0,
      "byteOffset": 48,
      "byteLength": 32,
      "target": 34962
    },
    {
      "buffer": 0,
      "byteOffset": 80,
      "byteLength": 24,
      "target": 34963
    },
    {
      "buffer": 0,
      "byteOffset": 104,
      "byteLength": 3936,
      "target": 34962
    },
    {
      "buffer": 0,
      "byteOffset": 4040,
      "byteLength": 3936,
      "target": 34962
    },
    {
      "buffer": 0,
      "byteOffset": 7976,
      "byteLength": 5904,
      "target": 34963
    }
  ],
  "buffers": [
    {
      "byteLength": 13880,
      "uri": "data:application/octet-stream;base64,"
    }
  ],
  "materials": [
    {
      "name": "Building",
      "pbrMetallicRoughness": {
        "metallicFactor": 0.0,
        "roughnessFactor": 0.9
      }
    }
  ]
}