# PlanForger OBJ export
mtllib 19_png.rf.5435466b5cc5a5cf9cbc1da0f911767b.mtl

o FloorPlan
usemtl FloorPlan
v -5.005603 -0.001000 2.124224
v 4.819396 -0.001000 2.124224
v 4.819396 -0.001000 -2.425776
v -5.005603 -0.001000 -2.425776
vt 0.0 0.0
vt 1.0 0.0
vt 1.0 1.0
vt 0.0 1.0
f 1/1 2/2 3/3
f 1/1 3/3 4/4

o wall
usemtl wall
v 0.506897 0.000000 0.421099
v 1.406897 0.000000 0.421099
v 1.406897 0.000000 0.627349
v 0.506897 0.000000 0.627349
v 0.506897 2.800000 0.421099
v 1.406897 2.800000 0.421099
v 1.406897 2.800000 0.627349
v 0.506897 2.800000 0.627349
f 8 7 6
f 8 6 5
f 9 10 11
f 9 11 12
f 5 6 10
f 5 10 9
f 6 7 11
f 6 11 10
f 7 8 12
f 7 12 11
f 8 5 9
f 8 9 12

o wall
usemtl wall
v 4.606897 0.000000 -2.372651
v 4.806897 0.000000 -2.372651
v 4.806897 0.000000 -1.866401
v 4.606897 0.000000 -1.866401
v 4.606897 2.800000 -2.372651
v 4.806897 2.800000 -2.372651
v 4.806897 2.800000 -1.866401
v 4.606897 2.800000 -1.866401
f 16 15 14
f 16 14 13
f 17 18 19
f 17 19 20
f 13 14 18
f 13 18 17
f 14 15 19
f 14 19 18
f 15 16 20
f 15 20 19
f 16 13 17
f 16 17 20

o wall
usemtl wall
v 4.606897 0.000000 -1.866401
v 4.806897 0.000000 -1.866401
v 4.806897 0.000000 -1.266401
v 4.606897 0.000000 -1.266401
v 4.606897 0.900000 -1.866401
v 4.806897 0.900000 -1.866401
v 4.806897 0.900000 -1.266401
v 4.606897 0.900000 -1.266401
f 24 23 22
f 24 22 21
f 25 26 27
f 25 27 28
f 21 22 26
f 21 26 25
f 22 23 27
f 22 27 26
f 23 24 28
f 23 28 27
f 24 21 25
f 24 25 28

o wall
usemtl wall
v 4.606897 2.100000 -1.866401
v 4.806897 2.100000 -1.866401
v 4.806897 2.100000 -1.266401
v 4.606897 2.100000 -1.266401
v 4.606897 2.800000 -1.866401
v 4.806897 2.800000 -1.866401
v 4.806897 2.800000 -1.266401
v 4.606897 2.800000 -1.266401
f 32 31 30
f 32 30 29
f 33 34 35
f 33 35 36
f 29 30 34
f 29 34 33
f 30 31 35
f 30 35 34
f 31 32 36
f 31 36 35
f 32 29 33
f 32 33 36

o Window
usemtl Window
v 4.686897 0.900000 -1.866401
v 4.726897 0.900000 -1.866401
v 4.726897 0.900000 -1.266401
v 4.686897 0.900000 -1.266401
v 4.686897 2.100000 -1.866401
v 4.726897 2.100000 -1.866401
v 4.726897 2.100000 -1.266401
v 4.686897 2.100000 -1.266401
f 40 39 38
f 40 38 37
f 41 42 43
f 41 43 44
f 37 38 42
f 37 42 41
f 38 39 43
f 38 43 42
f 39 40 44
f 39 44 43
f 40 37 41
f 40 41 44

o wall
usemtl wall
v 4.606897 0.000000 -1.266401
v 4.806897 0.000000 -1.266401
v 4.806897 0.000000 -0.347651
v 4.606897 0.000000 -0.347651
v 4.606897 2.800000 -1.266401
v 4.806897 2.800000 -1.266401
v 4.806897 2.800000 -0.347651
v 4.606897 2.800000 -0.347651
f 48 47 46
f 48 46 45
f 49 50 51
f 49 51 52
f 45 46 50
f 45 50 49
f 46 47 51
f 46 51 50
f 47 48 52
f 47 52 51
f 48 45 49
f 48 49 52

o wall
usemtl wall
v 4.606897 0.000000 -0.347651
v 4.806897 0.000000 -0.347651
v 4.806897 0.000000 0.477349
v 4.606897 0.000000 0.477349
v 4.606897 0.900000 -0.347651
v 4.806897 0.900000 -0.347651
v 4.806897 0.900000 0.477349
v 4.606897 0.900000 0.477349
f 56 55 54
f 56 54 53
f 57 58 59
f 57 59 60
f 53 54 58
f 53 58 57
f 54 55 59
f 54 59 58
f 55 56 60
f 55 60 59
f 56 53 57
f 56 57 60

o wall
usemtl wall
v 4.606897 2.100000 -0.347651
v 4.806897 2.100000 -0.347651
v 4.806897 2.100000 0.477349
v 4.606897 2.100000 0.477349
v 4.606897 2.800000 -0.347651
v 4.806897 2.800000 -0.347651
v 4.806897 2.800000 0.477349
v 4.606897 2.800000 0.477349
f 64 63 62
f 64 62 61
f 65 66 67
f 65 67 68
f 61 62 66
f 61 66 65
f 62 63 67
f 62 67 66
f 63 64 68
f 63 68 67
f 64 61 65
f 64 65 68

o Window
usemtl Window
v 4.686897 0.900000 -0.347651
v 4.726897 0.900000 -0.347651
v 4.726897 0.900000 0.477349
v 4.686897 0.900000 0.477349
v 4.686897 2.100000 -0.347651
v 4.726897 2.100000 -0.347651
v 4.726897 2.100000 0.477349
v 4.686897 2.100000 0.477349
f 72 71 70
f 72 70 69
f 73 74 75
f 73 75 76
f 69 70 74
f 69 74 73
f 70 71 75
f 70 75 74
f 71 72 76
f 71 76 75
f 72 69 73
f 72 73 76

o wall
usemtl wall
v 4.606897 0.000000 0.477349
v 4.806897 0.000000 0.477349
v 4.806897 0.000000 0.646099
v 4.606897 0.000000 0.646099
v 4.606897 2.800000 0.477349
v 4.806897 2.800000 0.477349
v 4.806897 2.800000 0.646099
v 4.606897 2.800000 0.646099
f 80 79 78
f 80 78 77
f 81 82 83
f 81 83 84
f 77 78 82
f 77 82 81
f 78 79 83
f 78 83 82
f 79 80 84
f 79 84 83
f 80 77 81
f 80 81 84

o wall
usemtl wall
v 0.144397 0.000000 -2.353901
v 0.344397 0.000000 -2.353901
v 0.344397 0.000000 -2.147651
v 0.144397 0.000000 -2.147651
v 0.144397 2.800000 -2.353901
v 0.344397 2.800000 -2.353901
v 0.344397 2.800000 -2.147651
v 0.144397 2.800000 -2.147651
f 88 87 86
f 88 86 85
f 89 90 91
f 89 91 92
f 85 86 90
f 85 90 89
f 86 87 91
f 86 91 90
f 87 88 92
f 87 92 91
f 88 85 89
f 88 89 92

o wall
usemtl wall
v 0.144397 0.000000 -2.147651
v 0.344397 0.000000 -2.147651
v 0.344397 0.000000 -1.078901
v 0.144397 0.000000 -1.078901
v 0.144397 0.900000 -2.147651
v 0.344397 0.900000 -2.147651
v 0.344397 0.900000 -1.078901
v 0.144397 0.900000 -1.078901
f 96 95 94
f 96 94 93
f 97 98 99
f 97 99 100
f 93 94 98
f 93 98 97
f 94 95 99
f 94 99 98
f 95 96 100
f 95 100 99
f 96 93 97
f 96 97 100

o wall
usemtl wall
v 0.144397 2.100000 -2.147651
v 0.344397 2.100000 -2.147651
v 0.344397 2.100000 -1.078901
v 0.144397 2.100000 -1.078901
v 0.144397 2.800000 -2.147651
v 0.344397 2.800000 -2.147651
v 0.344397 2.800000 -1.078901
v 0.144397 2.800000 -1.078901
f 104 103 102
f 104 102 101
f 105 106 107
f 105 107 108
f 101 102 106
f 101 106 105
f 102 103 107
f 102 107 106
f 103 104 108
f 103 108 107
f 104 101 105
f 104 105 108

o Window
usemtl Window
v 0.224397 0.900000 -2.147651
v 0.264397 0.900000 -2.147651
v 0.264397 0.900000 -1.078901
v 0.224397 0.900000 -1.078901
v 0.224397 2.100000 -2.147651
v 0.264397 2.100000 -2.147651
v 0.264397 2.100000 -1.078901
v 0.224397 2.100000 -1.078901
f 112 111 110
f 112 110 109
f 113 114 115
f 113 115 116
f 109 110 114
f 109 114 113
f 110 111 115
f 110 115 114
f 111 112 116
f 111 116 115
f 112 109 113
f 112 113 116

o wall
usemtl wall
v 0.144397 0.000000 -1.078901
v 0.344397 0.000000 -1.078901
v 0.344397 0.000000 0.646099
v 0.144397 0.000000 0.646099
v 0.144397 2.800000 -1.078901
v 0.344397 2.800000 -1.078901
v 0.344397 2.800000 0.646099
v 0.144397 2.800000 0.646099
f 120 119 118
f 120 118 117
f 121 122 123
f 121 123 124
f 117 118 122
f 117 122 121
f 118 119 123
f 118 123 122
f 119 120 124
f 119 124 123
f 120 117 121
f 120 121 124

o wall
usemtl wall
v -3.999353 0.000000 -2.372651
v -3.799353 0.000000 -2.372651
v -3.799353 0.000000 -1.960151
v -3.999353 0.000000 -1.960151
v -3.999353 2.800000 -2.372651
v -3.799353 2.800000 -2.372651
v -3.799353 2.800000 -1.960151
v -3.999353 2.800000 -1.960151
f 128 127 126
f 128 126 125
f 129 130 131
f 129 131 132
f 125 126 130
f 125 130 129
f 126 127 131
f 126 131 130
f 127 128 132
f 127 132 131
f 128 125 129
f 128 129 132

o wall
usemtl wall
v -3.999353 0.000000 -1.960151
v -3.799353 0.000000 -1.960151
v -3.799353 0.000000 -1.678901
v -3.999353 0.000000 -1.678901
v -3.999353 0.900000 -1.960151
v -3.799353 0.900000 -1.960151
v -3.799353 0.900000 -1.678901
v -3.999353 0.900000 -1.678901
f 136 135 134
f 136 134 133
f 137 138 139
f 137 139 140
f 133 134 138
f 133 138 137
f 134 135 139
f 134 139 138
f 135 136 140
f 135 140 139
f 136 133 137
f 136 137 140

o wall
usemtl wall
v -3.999353 2.100000 -1.960151
v -3.799353 2.100000 -1.960151
v -3.799353 2.100000 -1.678901
v -3.999353 2.100000 -1.678901
v -3.999353 2.800000 -1.960151
v -3.799353 2.800000 -1.960151
v -3.799353 2.800000 -1.678901
v -3.999353 2.800000 -1.678901
f 144 143 142
f 144 142 141
f 145 146 147
f 145 147 148
f 141 142 146
f 141 146 145
f 142 143 147
f 142 147 146
f 143 144 148
f 143 148 147
f 144 141 145
f 144 145 148

o Window
usemtl Window
v -3.919353 0.900000 -1.960151
v -3.879353 0.900000 -1.960151
v -3.879353 0.900000 -1.678901
v -3.919353 0.900000 -1.678901
v -3.919353 2.100000 -1.960151
v -3.879353 2.100000 -1.960151
v -3.879353 2.100000 -1.678901
v -3.919353 2.100000 -1.678901
f 152 151 150
f 152 150 149
f 153 154 155
f 153 155 156
f 149 150 154
f 149 154 153
f 150 151 155
f 150 155 154
f 151 152 156
f 151 156 155
f 152 149 153
f 152 153 156

o wall
usemtl wall
v -3.999353 0.000000 -1.678901
v -3.799353 0.000000 -1.678901
v -3.799353 0.000000 -1.322651
v -3.999353 0.000000 -1.322651
v -3.999353 2.800000 -1.678901
v -3.799353 2.800000 -1.678901
v -3.799353 2.800000 -1.322651
v -3.999353 2.800000 -1.322651
f 160 159 158
f 160 158 157
f 161 162 163
f 161 163 164
f 157 158 162
f 157 162 161
f 158 159 163
f 158 163 162
f 159 160 164
f 159 164 163
f 160 157 161
f 160 161 164

o wall
usemtl wall
v -3.999353 2.100000 -1.322651
v -3.799353 2.100000 -1.322651
v -3.799353 2.100000 -0.928901
v -3.999353 2.100000 -0.928901
v -3.999353 2.800000 -1.322651
v -3.799353 2.800000 -1.322651
v -3.799353 2.800000 -0.928901
v -3.999353 2.800000 -0.928901
f 168 167 166
f 168 166 165
f 169 170 171
f 169 171 172
f 165 166 170
f 165 170 169
f 166 167 171
f 166 171 170
f 167 168 172
f 167 172 171
f 168 165 169
f 168 169 172

o Door
usemtl Door
v -3.924353 0.000000 -1.322651
v -3.874353 0.000000 -1.322651
v -3.874353 0.000000 -0.928901
v -3.924353 0.000000 -0.928901
v -3.924353 2.100000 -1.322651
v -3.874353 2.100000 -1.322651
v -3.874353 2.100000 -0.928901
v -3.924353 2.100000 -0.928901
f 176 175 174
f 176 174 173
f 177 178 179
f 177 179 180
f 173 174 178
f 173 178 177
f 174 175 179
f 174 179 178
f 175 176 180
f 175 180 179
f 176 173 177
f 176 177 180

o wall
usemtl wall
v -3.999353 0.000000 -0.928901
v -3.799353 0.000000 -0.928901
v -3.799353 0.000000 -0.872651
v -3.999353 0.000000 -0.872651
v -3.999353 2.800000 -0.928901
v -3.799353 2.800000 -0.928901
v -3.799353 2.800000 -0.872651
v -3.999353 2.800000 -0.872651
f 184 183 182
f 184 182 181
f 185 186 187
f 185 187 188
f 181 182 186
f 181 186 185
f 182 183 187
f 182 187 186
f 183 184 188
f 183 188 187
f 184 181 185
f 184 185 188

o wall
usemtl wall
v -3.999353 0.000000 -0.872651
v -3.799353 0.000000 -0.872651
v -3.799353 0.000000 0.008599
v -3.999353 0.000000 0.008599
v -3.999353 0.900000 -0.872651
v -3.799353 0.900000 -0.872651
v -3.799353 0.900000 0.008599
v -3.999353 0.900000 0.008599
f 192 191 190
f 192 190 189
f 193 194 195
f 193 195 196
f 189 190 194
f 189 194 193
f 190 191 195
f 190 195 194
f 191 192 196
f 191 196 195
f 192 189 193
f 192 193 196

o wall
usemtl wall
v -3.999353 2.100000 -0.872651
v -3.799353 2.100000 -0.872651
v -3.799353 2.100000 0.008599
v -3.999353 2.100000 0.008599
v -3.999353 2.800000 -0.872651
v -3.799353 2.800000 -0.872651
v -3.799353 2.800000 0.008599
v -3.999353 2.800000 0.008599
f 200 199 198
f 200 198 197
f 201 202 203
f 201 203 204
f 197 198 202
f 197 202 201
f 198 199 203
f 198 203 202
f 199 200 204
f 199 204 203
f 200 197 201
f 200 201 204

o Window
usemtl Window
v -3.919353 0.900000 -0.872651
v -3.879353 0.900000 -0.872651
v -3.879353 0.900000 0.008599
v -3.919353 0.900000 0.008599
v -3.919353 2.100000 -0.872651
v -3.879353 2.100000 -0.872651
v -3.879353 2.100000 0.008599
v -3.919353 2.100000 0.008599
f 208 207 206
f 208 206 205
f 209 210 211
f 209 211 212
f 205 206 210
f 205 210 209
f 206 207 211
f 206 211 210
f 207 208 212
f 207 212 211
f 208 205 209
f 208 209 212

o wall
usemtl wall
v -3.999353 0.000000 0.008599
v -3.799353 0.000000 0.008599
v -3.799353 0.000000 0.608599
v -3.999353 0.000000 0.608599
v -3.999353 2.800000 0.008599
v -3.799353 2.800000 0.008599
v -3.799353 2.800000 0.608599
v -3.999353 2.800000 0.608599
f 216 215 214
f 216 214 213
f 217 218 219
f 217 219 220
f 213 214 218
f 213 218 217
f 214 215 219
f 214 219 218
f 215 216 220
f 215 220 219
f 216 213 217
f 216 217 220

o wall
usemtl wall
v 0.506897 0.000000 -2.425776
v 4.800647 0.000000 -2.425776
v 4.800647 0.000000 -2.225776
v 0.506897 0.000000 -2.225776
v 0.506897 2.800000 -2.425776
v 4.800647 2.800000 -2.425776
v 4.800647 2.800000 -2.225776
v 0.506897 2.800000 -2.225776
f 224 223 222
f 224 222 221
f 225 226 227
f 225 227 228
f 221 222 226
f 221 226 225
f 222 223 227
f 222 227 226
f 223 224 228
f 223 228 227
f 224 221 225
f 224 225 228

o wall
usemtl wall
v -2.343103 0.000000 1.277349
v -1.986853 0.000000 1.277349
v -1.986853 0.000000 1.477349
v -2.343103 0.000000 1.477349
v -2.343103 2.800000 1.277349
v -1.986853 2.800000 1.277349
v -1.986853 2.800000 1.477349
v -2.343103 2.800000 1.477349
f 232 231 230
f 232 230 229
f 233 234 235
f 233 235 236
f 229 230 234
f 229 234 233
f 230 231 235
f 230 235 234
f 231 232 236
f 231 236 235
f 232 229 233
f 232 233 236

o wall
usemtl wall
v -1.986853 2.100000 1.277349
v -1.668103 2.100000 1.277349
v -1.668103 2.100000 1.477349
v -1.986853 2.100000 1.477349
v -1.986853 2.800000 1.277349
v -1.668103 2.800000 1.277349
v -1.668103 2.800000 1.477349
v -1.986853 2.800000 1.477349
f 240 239 238
f 240 238 237
f 241 242 243
f 241 243 244
f 237 238 242
f 237 242 241
f 238 239 243
f 238 243 242
f 239 240 244
f 239 244 243
f 240 237 241
f 240 241 244

o Door
usemtl Door
v -1.986853 0.000000 1.352349
v -1.668103 0.000000 1.352349
v -1.668103 0.000000 1.402349
v -1.986853 0.000000 1.402349
v -1.986853 2.100000 1.352349
v -1.668103 2.100000 1.352349
v -1.668103 2.100000 1.402349
v -1.986853 2.100000 1.402349
f 248 247 246
f 248 246 245
f 249 250 251
f 249 251 252
f 245 246 250
f 245 250 249
f 246 247 251
f 246 251 250
f 247 248 252
f 247 252 251
f 248 245 249
f 248 249 252

o wall
usemtl wall
v -1.668103 0.000000 1.277349
v -1.330603 0.000000 1.277349
v -1.330603 0.000000 1.477349
v -1.668103 0.000000 1.477349
v -1.668103 2.800000 1.277349
v -1.330603 2.800000 1.277349
v -1.330603 2.800000 1.477349
v -1.668103 2.800000 1.477349
f 256 255 254
f 256 254 253
f 257 258 259
f 257 259 260
f 253 254 258
f 253 258 257
f 254 255 259
f 254 259 258
f 255 256 260
f 255 260 259
f 256 253 257
f 256 257 260

o wall
usemtl wall
v -3.974353 0.000000 -2.425776
v 0.300647 0.000000 -2.425776
v 0.300647 0.000000 -2.225776
v -3.974353 0.000000 -2.225776
v -3.974353 2.800000 -2.425776
v 0.300647 2.800000 -2.425776
v 0.300647 2.800000 -2.225776
v -3.974353 2.800000 -2.225776
f 264 263 262
f 264 262 261
f 265 266 267
f 265 267 268
f 261 262 266
f 261 266 265
f 262 263 267
f 262 267 266
f 263 264 268
f 263 268 267
f 264 261 265
f 264 265 268

o wall
usemtl wall
v 1.481897 0.000000 0.452349
v 2.438147 0.000000 0.452349
v 2.438147 0.000000 0.652349
v 1.481897 0.000000 0.652349
v 1.481897 2.800000 0.452349
v 2.438147 2.800000 0.452349
v 2.438147 2.800000 0.652349
v 1.481897 2.800000 0.652349
f 272 271 270
f 272 270 269
f 273 274 275
f 273 275 276
f 269 270 274
f 269 274 273
f 270 271 275
f 270 275 274
f 271 272 276
f 271 276 275
f 272 269 273
f 272 273 276

o wall
usemtl wall
v 2.438147 2.100000 0.452349
v 2.756896 2.100000 0.452349
v 2.756896 2.100000 0.652349
v 2.438147 2.100000 0.652349
v 2.438147 2.800000 0.452349
v 2.756896 2.800000 0.452349
v 2.756896 2.800000 0.652349
v 2.438147 2.800000 0.652349
f 280 279 278
f 280 278 277
f 281 282 283
f 281 283 284
f 277 278 282
f 277 282 281
f 278 279 283
f 278 283 282
f 279 280 284
f 279 284 283
f 280 277 281
f 280 281 284

o Door
usemtl Door
v 2.438147 0.000000 0.527349
v 2.756896 0.000000 0.527349
v 2.756896 0.000000 0.577349
v 2.438147 0.000000 0.577349
v 2.438147 2.100000 0.527349
v 2.756896 2.100000 0.527349
v 2.756896 2.100000 0.577349
v 2.438147 2.100000 0.577349
f 288 287 286
f 288 286 285
f 289 290 291
f 289 291 292
f 285 286 290
f 285 290 289
f 286 287 291
f 286 291 290
f 287 288 292
f 287 292 291
f 288 285 289
f 288 289 292

o wall
usemtl wall
v 2.756896 0.000000 0.452349
v 4.819396 0.000000 0.452349
v 4.819396 0.000000 0.652349
v 2.756896 0.000000 0.652349
v 2.756896 2.800000 0.452349
v 4.819396 2.800000 0.452349
v 4.819396 2.800000 0.652349
v 2.756896 2.800000 0.652349
f 296 295 294
f 296 294 293
f 297 298 299
f 297 299 300
f 293 294 298
f 293 298 297
f 294 295 299
f 294 299 298
f 295 296 300
f 295 300 299
f 296 293 297
f 296 297 300

o wall
usemtl wall
v -3.974353 0.000000 0.452349
v -2.005603 0.000000 0.452349
v -2.005603 0.000000 0.652349
v -3.974353 0.000000 0.652349
v -3.974353 2.800000 0.452349
v -2.005603 2.800000 0.452349
v -2.005603 2.800000 0.652349
v -3.974353 2.800000 0.652349
f 304 303 302
f 304 302 301
f 305 306 307
f 305 307 308
f 301 302 306
f 301 306 305
f 302 303 307
f 302 307 306
f 303 304 308
f 303 308 307
f 304 301 305
f 304 305 308

o wall
usemtl wall
v -2.005603 2.100000 0.452349
v -1.555603 2.100000 0.452349
v -1.555603 2.100000 0.652349
v -2.005603 2.100000 0.652349
v -2.005603 2.800000 0.452349
v -1.555603 2.800000 0.452349
v -1.555603 2.800000 0.652349
v -2.005603 2.800000 0.652349
f 312 311 310
f 312 310 309
f 313 314 315
f 313 315 316
f 309 310 314
f 309 314 313
f 310 311 315
f 310 315 314
f 311 312 316
f 311 316 315
f 312 309 313
f 312 313 316

o Door
usemtl Door
v -2.005603 0.000000 0.527349
v -1.555603 0.000000 0.527349
v -1.555603 0.000000 0.577349
v -2.005603 0.000000 0.577349
v -2.005603 2.100000 0.527349
v -1.555603 2.100000 0.527349
v -1.555603 2.100000 0.577349
v -2.005603 2.100000 0.577349
f 320 319 318
f 320 318 317
f 321 322 323
f 321 323 324
f 317 318 322
f 317 322 321
f 318 319 323
f 318 323 322
f 319 320 324
f 319 324 323
f 320 317 321
f 320 321 324

o wall
usemtl wall
v -1.555603 0.000000 0.452349
v -0.693103 0.000000 0.452349
v -0.693103 0.000000 0.652349
v -1.555603 0.000000 0.652349
v -1.555603 2.800000 0.452349
v -0.693103 2.800000 0.452349
v -0.693103 2.800000 0.652349
v -1.555603 2.800000 0.652349
f 328 327 326
f 328 326 325
f 329 330 331
f 329 331 332
f 325 326 330
f 325 330 329
f 326 327 331
f 326 331 330
f 327 328 332
f 327 332 331
f 328 325 329
f 328 329 332

o wall
usemtl wall
v -0.693103 0.000000 0.452349
v -0.130603 0.000000 0.452349
v -0.130603 0.000000 0.652349
v -0.693103 0.000000 0.652349
v -0.693103 0.900000 0.452349
v -0.130603 0.900000 0.452349
v -0.130603 0.900000 0.652349
v -0.693103 0.900000 0.652349
f 336 335 334
f 336 334 333
f 337 338 339
f 337 339 340
f 333 334 338
f 333 338 337
f 334 335 339
f 334 339 338
f 335 336 340
f 335 340 339
f 336 333 337
f 336 337 340

o wall
usemtl wall
v -0.693103 2.100000 0.452349
v -0.130603 2.100000 0.452349
v -0.130603 2.100000 0.652349
v -0.693103 2.100000 0.652349
v -0.693103 2.800000 0.452349
v -0.130603 2.800000 0.452349
v -0.130603 2.800000 0.652349
v -0.693103 2.800000 0.652349
f 344 343 342
f 344 342 341
f 345 346 347
f 345 347 348
f 341 342 346
f 341 346 345
f 342 343 347
f 342 347 346
f 343 344 348
f 343 348 347
f 344 341 345
f 344 345 348

o Window
usemtl Window
v -0.693103 0.900000 0.532349
v -0.130603 0.900000 0.532349
v -0.130603 0.900000 0.572349
v -0.693103 0.900000 0.572349
v -0.693103 2.100000 0.532349
v -0.130603 2.100000 0.532349
v -0.130603 2.100000 0.572349
v -0.693103 2.100000 0.572349
f 352 351 350
f 352 350 349
f 353 354 355
f 353 355 356
f 349 350 354
f 349 354 353
f 350 351 355
f 350 355 354
f 351 352 356
f 351 356 355
f 352 349 353
f 352 353 356

o wall
usemtl wall
v -0.130603 0.000000 0.452349
v 0.319397 0.000000 0.452349
v 0.319397 0.000000 0.652349
v -0.130603 0.000000 0.652349
v -0.130603 2.800000 0.452349
v 0.319397 2.800000 0.452349
v 0.319397 2.800000 0.652349
v -0.130603 2.800000 0.652349
f 360 359 358
f 360 358 357
f 361 362 363
f 361 363 364
f 357 358 362
f 357 362 361
f 358 359 363
f 358 363 362
f 359 360 364
f 359 364 363
f 360 357 361
f 360 361 364

o wall
usemtl wall
v -3.974353 0.000000 0.439849
v -2.043103 0.000000 0.439849
v -2.043103 0.000000 0.646099
v -3.974353 0.000000 0.646099
v -3.974353 2.800000 0.439849
v -2.043103 2.800000 0.439849
v -2.043103 2.800000 0.646099
v -3.974353 2.800000 0.646099
f 368 367 366
f 368 366 365
f 369 370 371
f 369 371 372
f 365 366 370
f 365 370 369
f 366 367 371
f 366 371 370
f 367 368 372
f 367 372 371
f 368 365 369
f 368 369 372

o wall
usemtl wall
v 0.481897 0.000000 -2.372651
v 0.681897 0.000000 -2.372651
v 0.681897 0.000000 -1.903901
v 0.481897 0.000000 -1.903901
v 0.481897 2.800000 -2.372651
v 0.681897 2.800000 -2.372651
v 0.681897 2.800000 -1.903901
v 0.481897 2.800000 -1.903901
f 376 375 374
f 376 374 373
f 377 378 379
f 377 379 380
f 373 374 378
f 373 378 377
f 374 375 379
f 374 379 378
f 375 376 380
f 375 380 379
f 376 373 377
f 376 377 380

o wall
usemtl wall
v 0.481897 0.000000 -1.903901
v 0.681897 0.000000 -1.903901
v 0.681897 0.000000 -1.060151
v 0.481897 0.000000 -1.060151
v 0.481897 0.900000 -1.903901
v 0.681897 0.900000 -1.903901
v 0.681897 0.900000 -1.060151
v 0.481897 0.900000 -1.060151
f 384 383 382
f 384 382 381
f 385 386 387
f 385 387 388
f 381 382 386
f 381 386 385
f 382 383 387
f 382 387 386
f 383 384 388
f 383 388 387
f 384 381 385
f 384 385 388

o wall
usemtl wall
v 0.481897 2.100000 -1.903901
v 0.681897 2.100000 -1.903901
v 0.681897 2.100000 -1.060151
v 0.481897 2.100000 -1.060151
v 0.481897 2.800000 -1.903901
v 0.681897 2.800000 -1.903901
v 0.681897 2.800000 -1.060151
v 0.481897 2.800000 -1.060151
f 392 391 390
f 392 390 389
f 393 394 395
f 393 395 396
f 389 390 394
f 389 394 393
f 390 391 395
f 390 395 394
f 391 392 396
f 391 396 395
f 392 389 393
f 392 393 396

o Window
usemtl Window
v 0.561897 0.900000 -1.903901
v 0.601897 0.900000 -1.903901
v 0.601897 0.900000 -1.060151
v 0.561897 0.900000 -1.060151
v 0.561897 2.100000 -1.903901
v 0.601897 2.100000 -1.903901
v 0.601897 2.100000 -1.060151
v 0.561897 2.100000 -1.060151
f 400 399 398
f 400 398 397
f 401 402 403
f 401 403 404
f 397 398 402
f 397 402 401
f 398 399 403
f 398 403 402
f 399 400 404
f 399 404 403
f 400 397 401
f 400 401 404

o wall
usemtl wall
v 0.481897 0.000000 -1.060151
v 0.681897 0.000000 -1.060151
v 0.681897 0.000000 0.646099
v 0.481897 0.000000 0.646099
v 0.481897 2.800000 -1.060151
v 0.681897 2.800000 -1.060151
v 0.681897 2.800000 0.646099
v 0.481897 2.800000 0.646099
f 408 407 406
f 408 406 405
f 409 410 411
f 409 411 412
f 405 406 410
f 405 410 409
f 406 407 411
f 406 411 410
f 407 408 412
f 407 412 411
f 408 405 409
f 408 409 412

o wall
usemtl wall
v 2.831897 0.000000 0.308599
v 3.113147 0.000000 0.308599
v 3.113147 0.000000 0.552349
v 2.831897 0.000000 0.552349
v 2.831897 2.800000 0.308599
v 3.113147 2.800000 0.308599
v 3.113147 2.800000 0.552349
v 2.831897 2.800000 0.552349
f 416 415 414
f 416 414 413
f 417 418 419
f 417 419 420
f 413 414 418
f 413 418 417
f 414 415 419
f 414 419 418
f 415 416 420
f 415 420 419
f 416 413 417
f 416 417 420

o wall
usemtl wall
v -1.480603 0.000000 -0.438276
v -0.955603 0.000000 -0.438276
v -0.955603 0.000000 -0.238276
v -1.480603 0.000000 -0.238276
v -1.480603 2.800000 -0.438276
v -0.955603 2.800000 -0.438276
v -0.955603 2.800000 -0.238276
v -1.480603 2.800000 -0.238276
f 424 423 422
f 424 422 421
f 425 426 427
f 425 427 428
f 421 422 426
f 421 426 425
f 422 423 427
f 422 427 426
f 423 424 428
f 423 428 427
f 424 421 425
f 424 425 428

o wall
usemtl wall
v 0.500647 0.000000 -0.722651
v 0.700647 0.000000 -0.722651
v 0.700647 0.000000 -0.160151
v 0.500647 0.000000 -0.160151
v 0.500647 2.800000 -0.722651
v 0.700647 2.800000 -0.722651
v 0.700647 2.800000 -0.160151
v 0.500647 2.800000 -0.160151
f 432 431 430
f 432 430 429
f 433 434 435
f 433 435 436
f 429 430 434
f 429 434 433
f 430 431 435
f 430 435 434
f 431 432 436
f 431 436 435
f 432 429 433
f 432 433 436

o wall
usemtl wall
v 0.500647 0.000000 -0.160151
v 0.700647 0.000000 -0.160151
v 0.700647 0.000000 0.402349
v 0.500647 0.000000 0.402349
v 0.500647 0.900000 -0.160151
v 0.700647 0.900000 -0.160151
v 0.700647 0.900000 0.402349
v 0.500647 0.900000 0.402349
f 440 439 438
f 440 438 437
f 441 442 443
f 441 443 444
f 437 438 442
f 437 442 441
f 438 439 443
f 438 443 442
f 439 440 444
f 439 444 443
f 440 437 441
f 440 441 444

o wall
usemtl wall
v 0.500647 2.100000 -0.160151
v 0.700647 2.100000 -0.160151
v 0.700647 2.100000 0.402349
v 0.500647 2.100000 0.402349
v 0.500647 2.800000 -0.160151
v 0.700647 2.800000 -0.160151
v 0.700647 2.800000 0.402349
v 0.500647 2.800000 0.402349
f 448 447 446
f 448 446 445
f 449 450 451
f 449 451 452
f 445 446 450
f 445 450 449
f 446 447 451
f 446 451 450
f 447 448 452
f 447 452 451
f 448 445 449
f 448 449 452

o Window
usemtl Window
v 0.580647 0.900000 -0.160151
v 0.620647 0.900000 -0.160151
v 0.620647 0.900000 0.402349
v 0.580647 0.900000 0.402349
v 0.580647 2.100000 -0.160151
v 0.620647 2.100000 -0.160151
v 0.620647 2.100000 0.402349
v 0.580647 2.100000 0.402349
f 456 455 454
f 456 454 453
f 457 458 459
f 457 459 460
f 453 454 458
f 453 458 457
f 454 455 459
f 454 459 458
f 455 456 460
f 455 460 459
f 456 453 457
f 456 457 460

o wall
usemtl wall
v 0.500647 0.000000 0.402349
v 0.700647 0.000000 0.402349
v 0.700647 0.000000 0.627349
v 0.500647 0.000000 0.627349
v 0.500647 2.800000 0.402349
v 0.700647 2.800000 0.402349
v 0.700647 2.800000 0.627349
v 0.500647 2.800000 0.627349
f 464 463 462
f 464 462 461
f 465 466 467
f 465 467 468
f 461 462 466
f 461 466 465
f 462 463 467
f 462 467 466
f 463 464 468
f 463 468 467
f 464 461 465
f 464 465 468

o wall
usemtl wall
v -1.702478 0.000000 -1.903901
v -1.502478 0.000000 -1.903901
v -1.502478 0.000000 -1.472651
v -1.702478 0.000000 -1.472651
v -1.702478 2.800000 -1.903901
v -1.502478 2.800000 -1.903901
v -1.502478 2.800000 -1.472651
v -1.702478 2.800000 -1.472651
f 472 471 470
f 472 470 469
f 473 474 475
f 473 475 476
f 469 470 474
f 469 474 473
f 470 471 475
f 470 475 474
f 471 472 476
f 471 476 475
f 472 469 473
f 472 473 476

o wall
usemtl wall
v 0.544397 0.000000 -0.794526
v 2.419397 0.000000 -0.794526
v 2.419397 0.000000 -0.594526
v 0.544397 0.000000 -0.594526
v 0.544397 2.800000 -0.794526
v 2.419397 2.800000 -0.794526
v 2.419397 2.800000 -0.594526
v 0.544397 2.800000 -0.594526
f 480 479 478
f 480 478 477
f 481 482 483
f 481 483 484
f 477 478 482
f 477 482 481
f 478 479 483
f 478 483 482
f 479 480 484
f 479 484 483
f 480 477 481
f 480 481 484

o wall
usemtl wall
v 3.210021 0.000000 -2.335151
v 3.410022 0.000000 -2.335151
v 3.410022 0.000000 -1.360151
v 3.210021 0.000000 -1.360151
v 3.210021 2.800000 -2.335151
v 3.410022 2.800000 -2.335151
v 3.410022 2.800000 -1.360151
v 3.210021 2.800000 -1.360151
f 488 487 486
f 488 486 485
f 489 490 491
f 489 491 492
f 485 486 490
f 485 490 489
f 486 487 491
f 486 491 490
f 487 488 492
f 487 492 491
f 488 485 489
f 488 489 492

o wall
usemtl wall
v 3.210021 2.100000 -1.360151
v 3.410022 2.100000 -1.360151
v 3.410022 2.100000 -1.003901
v 3.210021 2.100000 -1.003901
v 3.210021 2.800000 -1.360151
v 3.410022 2.800000 -1.360151
v 3.410022 2.800000 -1.003901
v 3.210021 2.800000 -1.003901
f 496 495 494
f 496 494 493
f 497 498 499
f 497 499 500
f 493 494 498
f 493 498 497
f 494 495 499
f 494 499 498
f 495 496 500
f 495 500 499
f 496 493 497
f 496 497 500

o Door
usemtl Door
v 3.285021 0.000000 -1.360151
v 3.335022 0.000000 -1.360151
v 3.335022 0.000000 -1.003901
v 3.285021 0.000000 -1.003901
v 3.285021 2.100000 -1.360151
v 3.335022 2.100000 -1.360151
v 3.335022 2.100000 -1.003901
v 3.285021 2.100000 -1.003901
f 504 503 502
f 504 502 501
f 505 506 507
f 505 507 508
f 501 502 506
f 501 506 505
f 502 503 507
f 502 507 506
f 503 504 508
f 503 508 507
f 504 501 505
f 504 505 508

o wall
usemtl wall
v 3.210021 0.000000 -1.003901
v 3.410022 0.000000 -1.003901
v 3.410022 0.000000 -0.816401
v 3.210021 0.000000 -0.816401
v 3.210021 2.800000 -1.003901
v 3.410022 2.800000 -1.003901
v 3.410022 2.800000 -0.816401
v 3.210021 2.800000 -0.816401
f 512 511 510
f 512 510 509
f 513 514 515
f 513 515 516
f 509 510 514
f 509 514 513
f 510 511 515
f 510 515 514
f 511 512 516
f 511 516 515
f 512 509 513
f 512 513 516

o wall
usemtl wall
v -1.552478 0.000000 -0.366401
v -1.352479 0.000000 -0.366401
v -1.352479 0.000000 0.627349
v -1.552478 0.000000 0.627349
v -1.552478 2.800000 -0.366401
v -1.352479 2.800000 -0.366401
v -1.352479 2.800000 0.627349
v -1.552478 2.800000 0.627349
f 520 519 518
f 520 518 517
f 521 522 523
f 521 523 524
f 517 518 522
f 517 522 521
f 518 519 523
f 518 523 522
f 519 520 524
f 519 524 523
f 520 517 521
f 520 521 524

o wall
usemtl wall
v 2.381896 0.000000 -0.972651
v 2.456897 0.000000 -0.972651
v 2.456897 0.000000 -0.772651
v 2.381896 0.000000 -0.772651
v 2.381896 2.800000 -0.972651
v 2.456897 2.800000 -0.972651
v 2.456897 2.800000 -0.772651
v 2.381896 2.800000 -0.772651
f 528 527 526
f 528 526 525
f 529 530 531
f 529 531 532
f 525 526 530
f 525 530 529
f 526 527 531
f 526 531 530
f 527 528 532
f 527 532 531
f 528 525 529
f 528 529 532

o wall
usemtl wall
v 2.456897 2.100000 -0.972651
v 2.775647 2.100000 -0.972651
v 2.775647 2.100000 -0.772651
v 2.456897 2.100000 -0.772651
v 2.456897 2.800000 -0.972651
v 2.775647 2.800000 -0.972651
v 2.775647 2.800000 -0.772651
v 2.456897 2.800000 -0.772651
f 536 535 534
f 536 534 533
f 537 538 539
f 537 539 540
f 533 534 538
f 533 538 537
f 534 535 539
f 534 539 538
f 535 536 540
f 535 540 539
f 536 533 537
f 536 537 540

o Door
usemtl Door
v 2.456897 0.000000 -0.897651
v 2.775647 0.000000 -0.897651
v 2.775647 0.000000 -0.847651
v 2.456897 0.000000 -0.847651
v 2.456897 2.100000 -0.897651
v 2.775647 2.100000 -0.897651
v 2.775647 2.100000 -0.847651
v 2.456897 2.100000 -0.847651
f 544 543 542
f 544 542 541
f 545 546 547
f 545 547 548
f 541 542 546
f 541 546 545
f 542 543 547
f 542 547 546
f 543 544 548
f 543 548 547
f 544 541 545
f 544 545 548

o wall
usemtl wall
v 2.775647 0.000000 -0.972651
v 2.888147 0.000000 -0.972651
v 2.888147 0.000000 -0.772651
v 2.775647 0.000000 -0.772651
v 2.775647 2.800000 -0.972651
v 2.888147 2.800000 -0.972651
v 2.888147 2.800000 -0.772651
v 2.775647 2.800000 -0.772651
f 552 551 550
f 552 550 549
f 553 554 555
f 553 555 556
f 549 550 554
f 549 554 553
f 550 551 555
f 550 555 554
f 551 552 556
f 551 556 555
f 552 549 553
f 552 553 556

o wall
usemtl wall
v 2.888147 2.100000 -0.972651
v 3.263147 2.100000 -0.972651
v 3.263147 2.100000 -0.772651
v 2.888147 2.100000 -0.772651
v 2.888147 2.800000 -0.972651
v 3.263147 2.800000 -0.972651
v 3.263147 2.800000 -0.772651
v 2.888147 2.800000 -0.772651
f 560 559 558
f 560 558 557
f 561 562 563
f 561 563 564
f 557 558 562
f 557 562 561
f 558 559 563
f 558 563 562
f 559 560 564
f 559 564 563
f 560 557 561
f 560 561 564

o Door
usemtl Door
v 2.888147 0.000000 -0.897651
v 3.263147 0.000000 -0.897651
v 3.263147 0.000000 -0.847651
v 2.888147 0.000000 -0.847651
v 2.888147 2.100000 -0.897651
v 3.263147 2.100000 -0.897651
v 3.263147 2.100000 -0.847651
v 2.888147 2.100000 -0.847651
f 568 567 566
f 568 566 565
f 569 570 571
f 569 571 572
f 565 566 570
f 565 570 569
f 566 567 571
f 566 571 570
f 567 568 572
f 567 572 571
f 568 565 569
f 568 569 572

o wall
usemtl wall
v 3.263147 0.000000 -0.972651
v 4.781897 0.000000 -0.972651
v 4.781897 0.000000 -0.772651
v 3.263147 0.000000 -0.772651
v 3.263147 2.800000 -0.972651
v 4.781897 2.800000 -0.972651
v 4.781897 2.800000 -0.772651
v 3.263147 2.800000 -0.772651
f 576 575 574
f 576 574 573
f 577 578 579
f 577 579 580
f 573 574 578
f 573 578 577
f 574 575 579
f 574 579 578
f 575 576 580
f 575 580 579
f 576 573 577
f 576 577 580

o wall
usemtl wall
v -2.414978 0.000000 1.358599
v -2.214978 0.000000 1.358599
v -2.214978 0.000000 2.033599
v -2.414978 0.000000 2.033599
v -2.414978 2.800000 1.358599
v -2.214978 2.800000 1.358599
v -2.214978 2.800000 2.033599
v -2.414978 2.800000 2.033599
f 584 583 582
f 584 582 581
f 585 586 587
f 585 587 588
f 581 582 586
f 581 586 585
f 582 583 587
f 582 587 586
f 583 584 588
f 583 588 587
f 584 581 585
f 584 585 588

o wall
usemtl wall
v -2.099353 0.000000 0.067974
v -1.986853 0.000000 0.067974
v -1.986853 0.000000 0.267974
v -2.099353 0.000000 0.267974
v -2.099353 2.800000 0.067974
v -1.986853 2.800000 0.067974
v -1.986853 2.800000 0.267974
v -2.099353 2.800000 0.267974
f 592 591 590
f 592 590 589
f 593 594 595
f 593 595 596
f 589 590 594
f 589 594 593
f 590 591 595
f 590 595 594
f 591 592 596
f 591 596 595
f 592 589 593
f 592 593 596

o wall
usemtl wall
v -1.986853 2.100000 0.067974
v -1.574353 2.100000 0.067974
v -1.574353 2.100000 0.267974
v -1.986853 2.100000 0.267974
v -1.986853 2.800000 0.067974
v -1.574353 2.800000 0.067974
v -1.574353 2.800000 0.267974
v -1.986853 2.800000 0.267974
f 600 599 598
f 600 598 597
f 601 602 603
f 601 603 604
f 597 598 602
f 597 602 601
f 598 599 603
f 598 603 602
f 599 600 604
f 599 604 603
f 600 597 601
f 600 601 604

o Door
usemtl Door
v -1.986853 0.000000 0.142974
v -1.574353 0.000000 0.142974
v -1.574353 0.000000 0.192974
v -1.986853 0.000000 0.192974
v -1.986853 2.100000 0.142974
v -1.574353 2.100000 0.142974
v -1.574353 2.100000 0.192974
v -1.986853 2.100000 0.192974
f 608 607 606
f 608 606 605
f 609 610 611
f 609 611 612
f 605 606 610
f 605 610 609
f 606 607 611
f 606 611 610
f 607 608 612
f 607 612 611
f 608 605 609
f 608 609 612

o wall
usemtl wall
v -1.574353 0.000000 0.067974
v -1.443103 0.000000 0.067974
v -1.443103 0.000000 0.267974
v -1.574353 0.000000 0.267974
v -1.574353 2.800000 0.067974
v -1.443103 2.800000 0.067974
v -1.443103 2.800000 0.267974
v -1.574353 2.800000 0.267974
f 616 615 614
f 616 614 613
f 617 618 619
f 617 619 620
f 613 614 618
f 613 618 617
f 614 615 619
f 614 619 618
f 615 616 620
f 615 620 619
f 616 613 617
f 616 617 620

o wall
usemtl wall
v -1.330603 0.000000 1.914849
v 0.319397 0.000000 1.914849
v 0.319397 0.000000 2.114849
v -1.330603 0.000000 2.114849
v -1.330603 2.800000 1.914849
v 0.319397 2.800000 1.914849
v 0.319397 2.800000 2.114849
v -1.330603 2.800000 2.114849
f 624 623 622
f 624 622 621
f 625 626 627
f 625 627 628
f 621 622 626
f 621 626 625
f 622 623 627
f 622 627 626
f 623 624 628
f 623 628 627
f 624 621 625
f 624 625 628

o wall
usemtl wall
v -2.324353 0.000000 1.924224
v -1.349353 0.000000 1.924224
v -1.349353 0.000000 2.124224
v -2.324353 0.000000 2.124224
v -2.324353 2.800000 1.924224
v -1.349353 2.800000 1.924224
v -1.349353 2.800000 2.124224
v -2.324353 2.800000 2.124224
f 632 631 630
f 632 630 629
f 633 634 635
f 633 635 636
f 629 630 634
f 629 634 633
f 630 631 635
f 630 635 634
f 631 632 636
f 631 636 635
f 632 629 633
f 632 633 636

o wall
usemtl wall
v -1.064978 0.000000 -0.985151
v -0.864978 0.000000 -0.985151
v -0.864978 0.000000 0.552349
v -1.064978 0.000000 0.552349
v -1.064978 2.800000 -0.985151
v -0.864978 2.800000 -0.985151
v -0.864978 2.800000 0.552349
v -1.064978 2.800000 0.552349
f 640 639 638
f 640 638 637
f 641 642 643
f 641 643 644
f 637 638 642
f 637 642 641
f 638 639 643
f 638 643 642
f 639 640 644
f 639 644 643
f 640 637 641
f 640 641 644

o wall
usemtl wall
v -1.293103 0.000000 -1.094526
v -0.955603 0.000000 -1.094526
v -0.955603 0.000000 -0.894526
v -1.293103 0.000000 -0.894526
v -1.293103 2.800000 -1.094526
v -0.955603 2.800000 -1.094526
v -0.955603 2.800000 -0.894526
v -1.293103 2.800000 -0.894526
f 648 647 646
f 648 646 645
f 649 650 651
f 649 651 652
f 645 646 650
f 645 650 649
f 646 647 651
f 646 651 650
f 647 648 652
f 647 652 651
f 648 645 649
f 648 649 652

o wall
usemtl wall
v 2.722521 0.000000 -0.891401
v 2.922522 0.000000 -0.891401
v 2.922522 0.000000 0.608599
v 2.722521 0.000000 0.608599
v 2.722521 2.800000 -0.891401
v 2.922522 2.800000 -0.891401
v 2.922522 2.800000 0.608599
v 2.722521 2.800000 0.608599
f 656 655 654
f 656 654 653
f 657 658 659
f 657 659 660
f 653 654 658
f 653 658 657
f 654 655 659
f 654 659 658
f 655 656 660
f 655 660 659
f 656 653 657
f 656 657 660

o wall
usemtl wall
v 2.760022 0.000000 -1.903901
v 2.960022 0.000000 -1.903901
v 2.960022 0.000000 -1.416401
v 2.760022 0.000000 -1.416401
v 2.760022 2.800000 -1.903901
v 2.960022 2.800000 -1.903901
v 2.960022 2.800000 -1.416401
v 2.760022 2.800000 -1.416401
f 664 663 662
f 664 662 661
f 665 666 667
f 665 667 668
f 661 662 666
f 661 666 665
f 662 663 667
f 662 667 666
f 663 664 668
f 663 668 667
f 664 661 665
f 664 665 668

o wall
usemtl wall
v -5.005603 0.000000 -2.425776
v -3.974353 0.000000 -2.425776
v -3.974353 0.000000 -2.225776
v -5.005603 0.000000 -2.225776
v -5.005603 2.800000 -2.425776
v -3.974353 2.800000 -2.425776
v -3.974353 2.800000 -2.225776
v -5.005603 2.800000 -2.225776
f 672 671 670
f 672 670 669
f 673 674 675
f 673 675 676
f 669 670 674
f 669 674 673
f 670 671 675
f 670 675 674
f 671 672 676
f 671 676 675
f 672 669 673
f 672 673 676

o wall
usemtl wall
v 0.181897 0.000000 0.664849
v 0.381897 0.000000 0.664849
v 0.381897 0.000000 2.014849
v 0.181897 0.000000 2.014849
v 0.181897 2.800000 0.664849
v 0.381897 2.800000 0.664849
v 0.381897 2.800000 2.014849
v 0.181897 2.800000 2.014849
f 680 679 678
f 680 678 677
f 681 682 683
f 681 683 684
f 677 678 682
f 677 682 681
f 678 679 683
f 678 683 682
f 679 680 684
f 679 684 683
f 680 677 681
f 680 681 684

o wall
usemtl wall
v 1.306897 0.000000 -0.385151
v 1.506897 0.000000 -0.385151
v 1.506897 0.000000 -0.141401
v 1.306897 0.000000 -0.141401
v 1.306897 2.800000 -0.385151
v 1.506897 2.800000 -0.385151
v 1.506897 2.800000 -0.141401
v 1.306897 2.800000 -0.141401
f 688 687 686
f 688 686 685
f 689 690 691
f 689 691 692
f 685 686 690
f 685 690 689
f 686 687 691
f 686 691 690
f 687 688 692
f 687 692 691
f 688 685 689
f 688 689 692

o wall
usemtl wall
v 1.306897 2.100000 -0.141401
v 1.506897 2.100000 -0.141401
v 1.506897 2.100000 0.139849
v 1.306897 2.100000 0.139849
v 1.306897 2.800000 -0.141401
v 1.506897 2.800000 -0.141401
v 1.506897 2.800000 0.139849
v 1.306897 2.800000 0.139849
f 696 695 694
f 696 694 693
f 697 698 699
f 697 699 700
f 693 694 698
f 693 698 697
f 694 695 699
f 694 699 698
f 695 696 700
f 695 700 699
f 696 693 697
f 696 697 700

o Door
usemtl Door
v 1.381896 0.000000 -0.141401
v 1.431897 0.000000 -0.141401
v 1.431897 0.000000 0.139849
v 1.381896 0.000000 0.139849
v 1.381896 2.100000 -0.141401
v 1.431897 2.100000 -0.141401
v 1.431897 2.100000 0.139849
v 1.381896 2.100000 0.139849
f 704 703 702
f 704 702 701
f 705 706 707
f 705 707 708
f 701 702 706
f 701 706 705
f 702 703 707
f 702 707 706
f 703 704 708
f 703 708 707
f 704 701 705
f 704 705 708

o wall
usemtl wall
v 1.306897 0.000000 0.139849
v 1.506897 0.000000 0.139849
v 1.506897 0.000000 0.589849
v 1.306897 0.000000 0.589849
v 1.306897 2.800000 0.139849
v 1.506897 2.800000 0.139849
v 1.506897 2.800000 0.589849
v 1.306897 2.800000 0.589849
f 712 711 710
f 712 710 709
f 713 714 715
f 713 715 716
f 709 710 714
f 709 714 713
f 710 711 715
f 710 715 714
f 711 712 716
f 711 716 715
f 712 709 713
f 712 713 716

o wall
usemtl wall
v -3.605603 0.000000 1.489849
v -3.405603 0.000000 1.489849
v -3.405603 0.000000 2.033599
v -3.605603 0.000000 2.033599
v -3.605603 2.800000 1.489849
v -3.405603 2.800000 1.489849
v -3.405603 2.800000 2.033599
v -3.605603 2.800000 2.033599
f 720 719 718
f 720 718 717
f 721 722 723
f 721 723 724
f 717 718 722
f 717 722 721
f 718 719 723
f 718 723 722
f 719 720 724
f 719 724 723
f 720 717 721
f 720 721 724

o wall
usemtl wall
v -1.480603 0.000000 0.452349
v 0.300647 0.000000 0.452349
v 0.300647 0.000000 0.652349
v -1.480603 0.000000 0.652349
v -1.480603 2.800000 0.452349
v 0.300647 2.800000 0.452349
v 0.300647 2.800000 0.652349
v -1.480603 2.800000 0.652349
f 728 727 726
f 728 726 725
f 729 730 731
f 729 731 732
f 725 726 730
f 725 730 729
f 726 727 731
f 726 731 730
f 727 728 732
f 727 732 731
f 728 725 729
f 728 729 732

o wall
usemtl wall
v 0.544397 0.000000 -0.785151
v 1.463147 0.000000 -0.785151
v 1.463147 0.000000 -0.585151
v 0.544397 0.000000 -0.585151
v 0.544397 2.800000 -0.785151
v 1.463147 2.800000 -0.785151
v 1.463147 2.800000 -0.585151
v 0.544397 2.800000 -0.585151
f 736 735 734
f 736 734 733
f 737 738 739
f 737 739 740
f 733 734 738
f 733 738 737
f 734 735 739
f 734 739 738
f 735 736 740
f 735 740 739
f 736 733 737
f 736 737 740

o wall
usemtl wall
v -1.243103 0.000000 -2.353901
v -1.043103 0.000000 -2.353901
v -1.043103 0.000000 -1.435151
v -1.243103 0.000000 -1.435151
v -1.243103 2.800000 -2.353901
v -1.043103 2.800000 -2.353901
v -1.043103 2.800000 -1.435151
v -1.243103 2.800000 -1.435151
f 744 743 742
f 744 742 741
f 745 746 747
f 745 747 748
f 741 742 746
f 741 746 745
f 742 743 747
f 742 747 746
f 743 744 748
f 743 748 747
f 744 741 745
f 744 745 748

o wall
usemtl wall
v -1.243103 2.100000 -1.435151
v -1.043103 2.100000 -1.435151
v -1.043103 2.100000 -1.041401
v -1.243103 2.100000 -1.041401
v -1.243103 2.800000 -1.435151
v -1.043103 2.800000 -1.435151
v -1.043103 2.800000 -1.041401
v -1.243103 2.800000 -1.041401
f 752 751 750
f 752 750 749
f 753 754 755
f 753 755 756
f 749 750 754
f 749 754 753
f 750 751 755
f 750 755 754
f 751 752 756
f 751 756 755
f 752 749 753
f 752 753 756

o Door
usemtl Door
v -1.168103 0.000000 -1.435151
v -1.118104 0.000000 -1.435151
v -1.118104 0.000000 -1.041401
v -1.168103 0.000000 -1.041401
v -1.168103 2.100000 -1.435151
v -1.118104 2.100000 -1.435151
v -1.118104 2.100000 -1.041401
v -1.168103 2.100000 -1.041401
f 760 759 758
f 760 758 757
f 761 762 763
f 761 763 764
f 757 758 762
f 757 762 761
f 758 759 763
f 758 763 762
f 759 760 764
f 759 764 763
f 760 757 761
f 760 761 764

o wall
usemtl wall
v -1.243103 0.000000 -1.041401
v -1.043103 0.000000 -1.041401
v -1.043103 0.000000 -0.947651
v -1.243103 0.000000 -0.947651
v -1.243103 2.800000 -1.041401
v -1.043103 2.800000 -1.041401
v -1.043103 2.800000 -0.947651
v -1.243103 2.800000 -0.947651
f 768 767 766
f 768 766 765
f 769 770 771
f 769 771 772
f 765 766 770
f 765 770 769
f 766 767 771
f 766 771 770
f 767 768 772
f 767 772 771
f 768 765 769
f 768 769 772

o wall
usemtl wall
v -3.543103 0.000000 1.914849
v -2.324353 0.000000 1.914849
v -2.324353 0.000000 2.114849
v -3.543103 0.000000 2.114849
v -3.543103 2.800000 1.914849
v -2.324353 2.800000 1.914849
v -2.324353 2.800000 2.114849
v -3.543103 2.800000 2.114849
f 776 775 774
f 776 774 773
f 777 778 779
f 777 779 780
f 773 774 778
f 773 778 777
f 774 775 779
f 774 779 778
f 775 776 780
f 775 780 779
f 776 773 777
f 776 777 780

