# PlanForger OBJ export
mtllib floorplan2.mtl

o FloorPlan
usemtl FloorPlan
v -6.234150 -0.001000 3.245550
v 3.005850 -0.001000 3.245550
v 3.005850 -0.001000 -4.039450
v -6.234150 -0.001000 -4.039450
vt 0.0 0.0
vt 1.0 0.0
vt 1.0 1.0
vt 0.0 1.0
f 1/1 2/2 3/3
f 1/1 3/3 4/4

o wall
usemtl wall
v -0.774150 0.000000 -3.999450
v -0.534150 0.000000 -3.999450
v -0.534150 0.000000 -1.089450
v -0.774150 0.000000 -1.089450
v -0.774150 2.800000 -3.999450
v -0.534150 2.800000 -3.999450
v -0.534150 2.800000 -1.089450
v -0.774150 2.800000 -1.089450
f 8 7 6
f 8 6 5
f 9 10 11
f 9 11 12
f 5 6 10
f 5 10 9
f 6 7 11
f 6 11 10
f 7 8 12
f 7 12 11
f 8 5 9
f 8 9 12

o wall
usemtl wall
v -0.894150 0.000000 0.085550
v 3.005850 0.000000 0.085550
v 3.005850 0.000000 0.285550
v -0.894150 0.000000 0.285550
v -0.894150 2.800000 0.085550
v 3.005850 2.800000 0.085550
v 3.005850 2.800000 0.285550
v -0.894150 2.800000 0.285550
f 16 15 14
f 16 14 13
f 17 18 19
f 17 19 20
f 13 14 18
f 13 18 17
f 14 15 19
f 14 19 18
f 15 16 20
f 15 20 19
f 16 13 17
f 16 17 20

o wall
usemtl wall
v -0.759150 0.000000 -1.226950
v 1.205850 0.000000 -1.226950
v 1.205850 0.000000 -1.026950
v -0.759150 0.000000 -1.026950
v -0.759150 2.800000 -1.226950
v 1.205850 2.800000 -1.226950
v 1.205850 2.800000 -1.026950
v -0.759150 2.800000 -1.026950
f 24 23 22
f 24 22 21
f 25 26 27
f 25 27 28
f 21 22 26
f 21 26 25
f 22 23 27
f 22 27 26
f 23 24 28
f 23 28 27
f 24 21 25
f 24 25 28

o wall
usemtl wall
v -6.234150 0.000000 2.960550
v 2.930850 0.000000 2.960550
v 2.930850 0.000000 3.215550
v -6.234150 0.000000 3.215550
v -6.234150 2.800000 2.960550
v 2.930850 2.800000 2.960550
v 2.930850 2.800000 3.215550
v -6.234150 2.800000 3.215550
f 32 31 30
f 32 30 29
f 33 34 35
f 33 35 36
f 29 30 34
f 29 34 33
f 30 31 35
f 30 35 34
f 31 32 36
f 31 36 35
f 32 29 33
f 32 33 36

o wall
usemtl wall
v 1.115849 0.000000 -2.404450
v 2.960850 0.000000 -2.404450
v 2.960850 0.000000 -2.204450
v 1.115849 0.000000 -2.204450
v 1.115849 2.800000 -2.404450
v 2.960850 2.800000 -2.404450
v 2.960850 2.800000 -2.204450
v 1.115849 2.800000 -2.204450
f 40 39 38
f 40 38 37
f 41 42 43
f 41 43 44
f 37 38 42
f 37 42 41
f 38 39 43
f 38 43 42
f 39 40 44
f 39 44 43
f 40 37 41
f 40 41 44

o wall
usemtl wall
v 2.793349 0.000000 -2.424450
v 2.993350 0.000000 -2.424450
v 2.993350 0.000000 2.990550
v 2.793349 0.000000 2.990550
v 2.793349 2.800000 -2.424450
v 2.993350 2.800000 -2.424450
v 2.993350 2.800000 2.990550
v 2.793349 2.800000 2.990550
f 48 47 46
f 48 46 45
f 49 50 51
f 49 51 52
f 45 46 50
f 45 50 49
f 46 47 51
f 46 51 50
f 47 48 52
f 47 52 51
f 48 45 49
f 48 49 52

o Door
usemtl Door
v 0.185850 0.000000 -1.164450
v 1.010850 0.000000 -1.164450
v 1.010850 0.000000 -1.044450
v 0.185850 0.000000 -1.044450
v 0.185850 2.100000 -1.164450
v 1.010850 2.100000 -1.164450
v 1.010850 2.100000 -1.044450
v 0.185850 2.100000 -1.044450
f 56 55 54
f 56 54 53
f 57 58 59
f 57 59 60
f 53 54 58
f 53 58 57
f 54 55 59
f 54 59 58
f 55 56 60
f 55 60 59
f 56 53 57
f 56 57 60

o Door
usemtl Door
v -0.519150 0.000000 0.155550
v 0.290850 0.000000 0.155550
v 0.290850 0.000000 0.260550
v -0.519150 0.000000 0.260550
v -0.519150 2.100000 0.155550
v 0.290850 2.100000 0.155550
v 0.290850 2.100000 0.260550
v -0.519150 2.100000 0.260550
f 64 63 62
f 64 62 61
f 65 66 67
f 65 67 68
f 61 62 66
f 61 66 65
f 62 63 67
f 62 67 66
f 63 64 68
f 63 68 67
f 64 61 65
f 64 65 68

o wall
usemtl wall
v 1.060849 0.000000 -4.014450
v 1.260850 0.000000 -4.014450
v 1.260850 0.000000 -1.104450
v 1.060849 0.000000 -1.104450
v 1.060849 2.800000 -4.014450
v 1.260850 2.800000 -4.014450
v 1.260850 2.800000 -1.104450
v 1.060849 2.800000 -1.104450
f 72 71 70
f 72 70 69
f 73 74 75
f 73 75 76
f 69 70 74
f 69 74 73
f 70 71 75
f 70 75 74
f 71 72 76
f 71 76 75
f 72 69 73
f 72 73 76

o wall
usemtl wall
v -0.896650 0.000000 0.125550
v -0.696650 0.000000 0.125550
v -0.696650 0.000000 3.050550
v -0.896650 0.000000 3.050550
v -0.896650 2.800000 0.125550
v -0.696650 2.800000 0.125550
v -0.696650 2.800000 3.050550
v -0.896650 2.800000 3.050550
f 80 79 78
f 80 78 77
f 81 82 83
f 81 83 84
f 77 78 82
f 77 82 81
f 78 79 83
f 78 83 82
f 79 80 84
f 79 84 83
f 80 77 81
f 80 81 84

o wall
usemtl wall
v -6.084150 0.000000 -4.039450
v -0.474150 0.000000 -4.039450
v -0.474150 0.000000 -3.839450
v -6.084150 0.000000 -3.839450
v -6.084150 2.800000 -4.039450
v -0.474150 2.800000 -4.039450
v -0.474150 2.800000 -3.839450
v -6.084150 2.800000 -3.839450
f 88 87 86
f 88 86 85
f 89 90 91
f 89 91 92
f 85 86 90
f 85 90 89
f 86 87 91
f 86 91 90
f 87 88 92
f 87 92 91
f 88 85 89
f 88 89 92

o Window
usemtl Window
v -6.234150 0.000000 2.915550
v 2.945850 0.000000 2.915550
v -1.329150 0.000000 3.035550
v -1.959150 0.000000 3.035550
v -6.234150 1.200000 2.915550
v 2.945850 1.200000 2.915550
v -1.329150 1.200000 3.035550
v -1.959150 1.200000 3.035550
f 96 95 94
f 96 94 93
f 97 98 99
f 97 99 100
f 93 94 98
f 93 98 97
f 94 95 99
f 94 99 98
f 95 96 100
f 95 100 99
f 96 93 97
f 96 97 100

o Window
usemtl Window
v -6.204150 0.000000 3.245550
v 2.960850 0.000000 3.245550
v 2.960850 0.000000 3.215550
v -6.204150 0.000000 3.215550
v -6.204150 1.200000 3.245550
v 2.960850 1.200000 3.245550
v 2.960850 1.200000 3.215550
v -6.204150 1.200000 3.215550
f 104 103 102
f 104 102 101
f 105 106 107
f 105 107 108
f 101 102 106
f 101 106 105
f 102 103 107
f 102 107 106
f 103 104 108
f 103 108 107
f 104 101 105
f 104 105 108

o Window
usemtl Window
v -6.204150 0.000000 3.245550
v 2.960850 0.000000 3.245550
v -1.329150 0.000000 3.035550
v -1.959150 0.000000 3.035550
v -6.204150 1.200000 3.245550
v 2.960850 1.200000 3.245550
v -1.329150 1.200000 3.035550
v -1.959150 1.200000 3.035550
f 112 111 110
f 112 110 109
f 113 114 115
f 113 115 116
f 109 110 114
f 109 114 113
f 110 111 115
f 110 115 114
f 111 112 116
f 111 116 115
f 112 109 113
f 112 113 116

o Window
usemtl Window
v -6.204150 0.000000 3.215550
v 2.960850 0.000000 3.215550
v -1.329150 0.000000 3.035550
v -1.959150 0.000000 3.035550
v -6.204150 1.200000 3.215550
v 2.960850 1.200000 3.215550
v -1.329150 1.200000 3.035550
v -1.959150 1.200000 3.035550
f 120 119 118
f 120 118 117
f 121 122 123
f 121 123 124
f 117 118 122
f 117 122 121
f 118 119 123
f 118 123 122
f 119 120 124
f 119 124 123
f 120 117 121
f 120 121 124

o Window
usemtl Window
v -2.919150 0.000000 2.945550
v -1.329150 0.000000 2.945550
v -1.599150 0.000000 3.005550
v -2.439150 0.000000 3.005550
v -2.919150 1.200000 2.945550
v -1.329150 1.200000 2.945550
v -1.599150 1.200000 3.005550
v -2.439150 1.200000 3.005550
f 128 127 126
f 128 126 125
f 129 130 131
f 129 131 132
f 125 126 130
f 125 130 129
f 126 127 131
f 126 131 130
f 127 128 132
f 127 132 131
f 128 125 129
f 128 129 132

o Window
usemtl Window
v 1.700850 0.000000 -2.574450
v 2.540850 0.000000 -2.574450
v 2.930850 0.000000 -2.349450
v 1.115849 0.000000 -2.349450
v 1.700850 1.200000 -2.574450
v 2.540850 1.200000 -2.574450
v 2.930850 1.200000 -2.349450
v 1.115849 1.200000 -2.349450
f 136 135 134
f 136 134 133
f 137 138 139
f 137 139 140
f 133 134 138
f 133 138 137
f 134 135 139
f 134 139 138
f 135 136 140
f 135 140 139
f 136 133 137
f 136 137 140

o Window
usemtl Window
v 0.665850 0.000000 -2.244450
v 2.825850 0.000000 -2.244450
v 2.930850 0.000000 -2.349450
v 1.115849 0.000000 -2.349450
v 0.665850 1.200000 -2.244450
v 2.825850 1.200000 -2.244450
v 2.930850 1.200000 -2.349450
v 1.115849 1.200000 -2.349450
f 144 143 142
f 144 142 141
f 145 146 147
f 145 147 148
f 141 142 146
f 141 146 145
f 142 143 147
f 142 147 146
f 143 144 148
f 143 148 147
f 144 141 145
f 144 145 148

o Window
usemtl Window
v 1.115849 0.000000 -2.349450
v 2.930850 0.000000 -2.349450
v 2.930850 0.000000 -2.604450
v 1.115849 0.000000 -2.604450
v 1.115849 1.200000 -2.349450
v 2.930850 1.200000 -2.349450
v 2.930850 1.200000 -2.604450
v 1.115849 1.200000 -2.604450
f 152 151 150
f 152 150 149
f 153 154 155
f 153 155 156
f 149 150 154
f 149 154 153
f 150 151 155
f 150 155 154
f 151 152 156
f 151 156 155
f 152 149 153
f 152 153 156

o Window
usemtl Window
v 0.530849 0.000000 2.810550
v 2.225850 0.000000 2.810550
v 2.225850 0.000000 2.840550
v 0.530849 0.000000 2.840550
v 0.530849 1.200000 2.810550
v 2.225850 1.200000 2.810550
v 2.225850 1.200000 2.840550
v 0.530849 1.200000 2.840550
f 160 159 158
f 160 158 157
f 161 162 163
f 161 163 164
f 157 158 162
f 157 162 161
f 158 159 163
f 158 163 162
f 159 160 164
f 159 164 163
f 160 157 161
f 160 161 164

o Window
usemtl Window
v -0.279150 0.000000 -1.074450
v 0.200850 0.000000 -1.074450
v 0.200850 0.000000 -1.179450
v -0.324150 0.000000 -1.179450
v -0.279150 1.200000 -1.074450
v 0.200850 1.200000 -1.074450
v 0.200850 1.200000 -1.179450
v -0.324150 1.200000 -1.179450
f 168 167 166
f 168 166 165
f 169 170 171
f 169 171 172
f 165 166 170
f 165 170 169
f 166 167 171
f 166 171 170
f 167 168 172
f 167 172 171
f 168 165 169
f 168 169 172

