# PlanForger OBJ export
mtllib floorplan1.mtl

o FloorPlan
usemtl FloorPlan
v -2.342823 -0.001000 5.084362
v 4.070970 -0.001000 5.084362
v 4.070970 -0.001000 -3.701844
v -2.342823 -0.001000 -3.701844
vt 0.0 0.0
vt 1.0 0.0
vt 1.0 1.0
vt 0.0 1.0
f 1/1 2/2 3/3
f 1/1 3/3 4/4

o wall
usemtl wall
v 0.691659 0.000000 3.829190
v 0.898556 0.000000 3.829190
v 0.898556 0.000000 5.070569
v 0.691659 0.000000 5.070569
v 0.691659 2.800000 3.829190
v 0.898556 2.800000 3.829190
v 0.898556 2.800000 5.070569
v 0.691659 2.800000 5.070569
f 8 7 6
f 8 6 5
f 9 10 11
f 9 11 12
f 5 6 10
f 5 10 9
f 6 7 11
f 6 11 10
f 7 8 12
f 7 12 11
f 8 5 9
f 8 9 12

o Door
usemtl Door
v 0.002005 0.000000 -3.688051
v 0.726142 0.000000 -3.688051
v 0.726142 0.000000 -3.481155
v 0.002005 0.000000 -3.481155
v 0.002005 2.100000 -3.688051
v 0.726142 2.100000 -3.688051
v 0.726142 2.100000 -3.481155
v 0.002005 2.100000 -3.481155
f 16 15 14
f 16 14 13
f 17 18 19
f 17 19 20
f 13 14 18
f 13 18 17
f 14 15 19
f 14 19 18
f 15 16 20
f 15 20 19
f 16 13 17
f 16 17 20

o wall
usemtl wall
v -2.342823 0.000000 3.815397
v 0.864073 0.000000 3.815397
v 0.864073 0.000000 4.015397
v -2.342823 0.000000 4.015397
v -2.342823 2.800000 3.815397
v 0.864073 2.800000 3.815397
v 0.864073 2.800000 4.015397
v -2.342823 2.800000 4.015397
f 24 23 22
f 24 22 21
f 25 26 27
f 25 27 28
f 21 22 26
f 21 26 25
f 22 23 27
f 22 27 26
f 23 24 28
f 23 28 27
f 24 21 25
f 24 25 28

o Door
usemtl Door
v 0.002005 0.000000 0.622293
v 0.657177 0.000000 0.622293
v 0.657177 0.000000 0.760225
v 0.002005 0.000000 0.760225
v 0.002005 2.100000 0.622293
v 0.657177 2.100000 0.622293
v 0.657177 2.100000 0.760225
v 0.002005 2.100000 0.760225
f 32 31 30
f 32 30 29
f 33 34 35
f 33 35 36
f 29 30 34
f 29 34 33
f 30 31 35
f 30 35 34
f 31 32 36
f 31 36 35
f 32 29 33
f 32 33 36

o wall
usemtl wall
v -1.825582 0.000000 -3.701844
v 3.795108 0.000000 -3.701844
v 3.795108 0.000000 -3.501844
v -1.825582 0.000000 -3.501844
v -1.825582 2.800000 -3.701844
v 3.795108 2.800000 -3.701844
v 3.795108 2.800000 -3.501844
v -1.825582 2.800000 -3.501844
f 40 39 38
f 40 38 37
f 41 42 43
f 41 43 44
f 37 38 42
f 37 42 41
f 38 39 43
f 38 43 42
f 39 40 44
f 39 44 43
f 40 37 41
f 40 41 44

o wall
usemtl wall
v 3.864073 0.000000 3.863673
v 4.070970 0.000000 3.863673
v 4.070970 0.000000 5.070569
v 3.864073 0.000000 5.070569
v 3.864073 2.800000 3.863673
v 4.070970 2.800000 3.863673
v 4.070970 2.800000 5.070569
v 3.864073 2.800000 5.070569
f 48 47 46
f 48 46 45
f 49 50 51
f 49 51 52
f 45 46 50
f 45 50 49
f 46 47 51
f 46 51 50
f 47 48 52
f 47 52 51
f 48 45 49
f 48 49 52

o wall
usemtl wall
v 0.691659 0.000000 4.884363
v 4.036487 0.000000 4.884363
v 4.036487 0.000000 5.084362
v 0.691659 0.000000 5.084362
v 0.691659 2.800000 4.884363
v 4.036487 2.800000 4.884363
v 4.036487 2.800000 5.084362
v 0.691659 2.800000 5.084362
f 56 55 54
f 56 54 53
f 57 58 59
f 57 59 60
f 53 54 58
f 53 58 57
f 54 55 59
f 54 59 58
f 55 56 60
f 55 60 59
f 56 53 57
f 56 57 60

o wall
usemtl wall
v -2.308340 0.000000 -2.032879
v -1.860065 0.000000 -2.032879
v -1.860065 0.000000 0.001604
v -2.308340 0.000000 0.001604
v -2.308340 2.800000 -2.032879
v -1.860065 2.800000 -2.032879
v -1.860065 2.800000 0.001604
v -2.308340 2.800000 0.001604
f 64 63 62
f 64 62 61
f 65 66 67
f 65 67 68
f 61 62 66
f 61 66 65
f 62 63 67
f 62 67 66
f 63 64 68
f 63 68 67
f 64 61 65
f 64 65 68

o wall
usemtl wall
v -2.308340 0.000000 -2.184603
v -0.239375 0.000000 -2.184603
v -0.239375 0.000000 -1.984603
v -2.308340 0.000000 -1.984603
v -2.308340 2.800000 -2.184603
v -0.239375 2.800000 -2.184603
v -0.239375 2.800000 -1.984603
v -2.308340 2.800000 -1.984603
f 72 71 70
f 72 70 69
f 73 74 75
f 73 75 76
f 69 70 74
f 69 74 73
f 70 71 75
f 70 75 74
f 71 72 76
f 71 76 75
f 72 69 73
f 72 73 76

o wall
usemtl wall
v 0.746832 0.000000 -1.688051
v 0.946832 0.000000 -1.688051
v 0.946832 0.000000 -0.825982
v 0.746832 0.000000 -0.825982
v 0.746832 2.800000 -1.688051
v 0.946832 2.800000 -1.688051
v 0.946832 2.800000 -0.825982
v 0.746832 2.800000 -0.825982
f 80 79 78
f 80 78 77
f 81 82 83
f 81 83 84
f 77 78 82
f 77 82 81
f 78 79 83
f 78 83 82
f 79 80 84
f 79 84 83
f 80 77 81
f 80 81 84

o wall
usemtl wall
v -2.273858 0.000000 0.574018
v 0.898556 0.000000 0.574018
v 0.898556 0.000000 0.774017
v -2.273858 0.000000 0.774017
v -2.273858 2.800000 0.574018
v 0.898556 2.800000 0.574018
v 0.898556 2.800000 0.774017
v -2.273858 2.800000 0.774017
f 88 87 86
f 88 86 85
f 89 90 91
f 89 91 92
f 85 86 90
f 85 90 89
f 86 87 91
f 86 91 90
f 87 88 92
f 87 92 91
f 88 85 89
f 88 89 92

o wall
usemtl wall
v 0.729591 0.000000 0.656776
v 0.929591 0.000000 0.656776
v 0.929591 0.000000 3.829190
v 0.729591 0.000000 3.829190
v 0.729591 2.800000 0.656776
v 0.929591 2.800000 0.656776
v 0.929591 2.800000 3.829190
v 0.729591 2.800000 3.829190
f 96 95 94
f 96 94 93
f 97 98 99
f 97 99 100
f 93 94 98
f 93 98 97
f 94 95 99
f 94 99 98
f 95 96 100
f 95 100 99
f 96 93 97
f 96 97 100

o wall
usemtl wall
v -2.273858 0.000000 -0.115637
v -0.239375 0.000000 -0.115637
v -0.239375 0.000000 0.084363
v -2.273858 0.000000 0.084363
v -2.273858 2.800000 -0.115637
v -0.239375 2.800000 -0.115637
v -0.239375 2.800000 0.084363
v -2.273858 2.800000 0.084363
f 104 103 102
f 104 102 101
f 105 106 107
f 105 107 108
f 101 102 106
f 101 106 105
f 102 103 107
f 102 107 106
f 103 104 108
f 103 108 107
f 104 101 105
f 104 105 108

o wall
usemtl wall
v -0.373857 0.000000 -2.170810
v -0.173858 0.000000 -2.170810
v -0.173858 0.000000 0.484363
v -0.373857 0.000000 0.484363
v -0.373857 2.800000 -2.170810
v -0.173858 2.800000 -2.170810
v -0.173858 2.800000 0.484363
v -0.373857 2.800000 0.484363
f 112 111 110
f 112 110 109
f 113 114 115
f 113 115 116
f 109 110 114
f 109 114 113
f 110 111 115
f 110 115 114
f 111 112 116
f 111 116 115
f 112 109 113
f 112 113 116

o wall
usemtl wall
v -2.308340 0.000000 -3.688051
v -2.101444 0.000000 -3.688051
v -2.101444 0.000000 -2.067362
v -2.308340 0.000000 -2.067362
v -2.308340 2.800000 -3.688051
v -2.101444 2.800000 -3.688051
v -2.101444 2.800000 -2.067362
v -2.308340 2.800000 -2.067362
f 120 119 118
f 120 118 117
f 121 122 123
f 121 123 124
f 117 118 122
f 117 122 121
f 118 119 123
f 118 123 122
f 119 120 124
f 119 124 123
f 120 117 121
f 120 121 124

o wall
usemtl wall
v -0.373857 0.000000 -0.032879
v -0.173858 0.000000 -0.032879
v -0.173858 0.000000 0.691259
v -0.373857 0.000000 0.691259
v -0.373857 2.800000 -0.032879
v -0.173858 2.800000 -0.032879
v -0.173858 2.800000 0.691259
v -0.373857 2.800000 0.691259
f 128 127 126
f 128 126 125
f 129 130 131
f 129 131 132
f 125 126 130
f 125 130 129
f 126 127 131
f 126 131 130
f 127 128 132
f 127 132 131
f 128 125 129
f 128 129 132

o Door
usemtl Door
v -0.342823 0.000000 -0.791500
v -0.239375 0.000000 -0.791500
v -0.239375 0.000000 0.001604
v -0.342823 0.000000 0.001604
v -0.342823 2.100000 -0.791500
v -0.239375 2.100000 -0.791500
v -0.239375 2.100000 0.001604
v -0.342823 2.100000 0.001604
f 136 135 134
f 136 134 133
f 137 138 139
f 137 139 140
f 133 134 138
f 133 138 137
f 134 135 139
f 134 139 138
f 135 136 140
f 135 140 139
f 136 133 137
f 136 137 140

o wall
usemtl wall
v 1.505453 0.000000 -1.688051
v 1.705452 0.000000 -1.688051
v 1.705452 0.000000 -0.825982
v 1.505453 0.000000 -0.825982
v 1.505453 2.800000 -1.688051
v 1.705452 2.800000 -1.688051
v 1.705452 2.800000 -0.825982
v 1.505453 2.800000 -0.825982
f 144 143 142
f 144 142 141
f 145 146 147
f 145 147 148
f 141 142 146
f 141 146 145
f 142 143 147
f 142 147 146
f 143 144 148
f 143 148 147
f 144 141 145
f 144 145 148

o wall
usemtl wall
v -0.373857 0.000000 -3.688051
v -0.173858 0.000000 -3.688051
v -0.173858 0.000000 -2.860465
v -0.373857 0.000000 -2.860465
v -0.373857 2.800000 -3.688051
v -0.173858 2.800000 -3.688051
v -0.173858 2.800000 -2.860465
v -0.373857 2.800000 -2.860465
f 152 151 150
f 152 150 149
f 153 154 155
f 153 155 156
f 149 150 154
f 149 154 153
f 150 151 155
f 150 155 154
f 151 152 156
f 151 156 155
f 152 149 153
f 152 153 156

o wall
usemtl wall
v 0.760625 0.000000 -0.960465
v 1.657177 0.000000 -0.960465
v 1.657177 0.000000 -0.760465
v 0.760625 0.000000 -0.760465
v 0.760625 2.800000 -0.960465
v 1.657177 2.800000 -0.960465
v 1.657177 2.800000 -0.760465
v 0.760625 2.800000 -0.760465
f 160 159 158
f 160 158 157
f 161 162 163
f 161 163 164
f 157 158 162
f 157 162 161
f 158 159 163
f 158 163 162
f 159 160 164
f 159 164 163
f 160 157 161
f 160 161 164

o wall
usemtl wall
v -2.308340 0.000000 -0.032879
v -2.101444 0.000000 -0.032879
v -2.101444 0.000000 3.932638
v -2.308340 0.000000 3.932638
v -2.308340 2.800000 -0.032879
v -2.101444 2.800000 -0.032879
v -2.101444 2.800000 3.932638
v -2.308340 2.800000 3.932638
f 168 167 166
f 168 166 165
f 169 170 171
f 169 171 172
f 165 166 170
f 165 170 169
f 166 167 171
f 166 171 170
f 167 168 172
f 167 172 171
f 168 165 169
f 168 169 172

o wall
usemtl wall
v 2.381315 0.000000 -1.563913
v 4.002004 0.000000 -1.563913
v 4.002004 0.000000 -1.363913
v 2.381315 0.000000 -1.363913
v 2.381315 2.800000 -1.563913
v 4.002004 2.800000 -1.563913
v 4.002004 2.800000 -1.363913
v 2.381315 2.800000 -1.363913
f 176 175 174
f 176 174 173
f 177 178 179
f 177 179 180
f 173 174 178
f 173 178 177
f 174 175 179
f 174 179 178
f 175 176 180
f 175 180 179
f 176 173 177
f 176 177 180

o Window
usemtl Window
v 0.726142 0.000000 -3.688051
v 4.036487 0.000000 -3.688051
v 3.484763 0.000000 -3.481155
v 1.553729 0.000000 -3.481155
v 0.726142 1.200000 -3.688051
v 4.036487 1.200000 -3.688051
v 3.484763 1.200000 -3.481155
v 1.553729 1.200000 -3.481155
f 184 183 182
f 184 182 181
f 185 186 187
f 185 187 188
f 181 182 186
f 181 186 185
f 182 183 187
f 182 187 186
f 183 184 188
f 183 188 187
f 184 181 185
f 184 185 188

o Window
usemtl Window
v -2.066961 0.000000 -3.481155
v 0.002005 0.000000 -3.481155
v -0.618685 0.000000 -3.688051
v -2.273858 0.000000 -3.688051
v -2.066961 1.200000 -3.481155
v 0.002005 1.200000 -3.481155
v -0.618685 1.200000 -3.688051
v -2.273858 1.200000 -3.688051
f 192 191 190
f 192 190 189
f 193 194 195
f 193 195 196
f 189 190 194
f 189 194 193
f 190 191 195
f 190 195 194
f 191 192 196
f 191 196 195
f 192 189 193
f 192 193 196

