# PlanForger OBJ export
mtllib 1.mtl

o FloorPlan
usemtl FloorPlan
v -3.524155 -0.001000 3.787270
v 5.982095 -0.001000 3.787270
v 5.982095 -0.001000 -6.184606
v -3.524155 -0.001000 -6.184606
vt 0.0 0.0
vt 1.0 0.0
vt 1.0 1.0
vt 0.0 1.0
f 1/1 2/2 3/3
f 1/1 3/3 4/4

o wall
usemtl wall
v 0.469595 0.000000 -6.131481
v 0.694595 0.000000 -6.131481
v 0.694595 0.000000 -3.881480
v 0.469595 0.000000 -3.881480
v 0.469595 2.800000 -6.131481
v 0.694595 2.800000 -6.131481
v 0.694595 2.800000 -3.881480
v 0.469595 2.800000 -3.881480
f 8 7 6
f 8 6 5
f 9 10 11
f 9 11 12
f 5 6 10
f 5 10 9
f 6 7 11
f 6 11 10
f 7 8 12
f 7 12 11
f 8 5 9
f 8 9 12

o wall
usemtl wall
v -3.505405 0.000000 3.543520
v -2.061655 0.000000 3.543520
v -2.061655 0.000000 3.787270
v -3.505405 0.000000 3.787270
v -3.505405 2.800000 3.543520
v -2.061655 2.800000 3.543520
v -2.061655 2.800000 3.787270
v -3.505405 2.800000 3.787270
f 16 15 14
f 16 14 13
f 17 18 19
f 17 19 20
f 13 14 18
f 13 18 17
f 14 15 19
f 14 19 18
f 15 16 20
f 15 20 19
f 16 13 17
f 16 17 20

o wall
usemtl wall
v -2.061655 2.100000 3.543520
v -0.767905 2.100000 3.543520
v -0.767905 2.100000 3.787270
v -2.061655 2.100000 3.787270
v -2.061655 2.800000 3.543520
v -0.767905 2.800000 3.543520
v -0.767905 2.800000 3.787270
v -2.061655 2.800000 3.787270
f 24 23 22
f 24 22 21
f 25 26 27
f 25 27 28
f 21 22 26
f 21 26 25
f 22 23 27
f 22 27 26
f 23 24 28
f 23 28 27
f 24 21 25
f 24 25 28

o Door
usemtl Door
v -2.061655 0.000000 3.640395
v -0.767905 0.000000 3.640395
v -0.767905 0.000000 3.690394
v -2.061655 0.000000 3.690394
v -2.061655 2.100000 3.640395
v -0.767905 2.100000 3.640395
v -0.767905 2.100000 3.690394
v -2.061655 2.100000 3.690394
f 32 31 30
f 32 30 29
f 33 34 35
f 33 35 36
f 29 30 34
f 29 34 33
f 30 31 35
f 30 35 34
f 31 32 36
f 31 36 35
f 32 29 33
f 32 33 36

o wall
usemtl wall
v -0.767905 0.000000 3.543520
v 0.713345 0.000000 3.543520
v 0.713345 0.000000 3.787270
v -0.767905 0.000000 3.787270
v -0.767905 2.800000 3.543520
v 0.713345 2.800000 3.543520
v 0.713345 2.800000 3.787270
v -0.767905 2.800000 3.787270
f 40 39 38
f 40 38 37
f 41 42 43
f 41 43 44
f 37 38 42
f 37 42 41
f 38 39 43
f 38 43 42
f 39 40 44
f 39 44 43
f 40 37 41
f 40 41 44

o wall
usemtl wall
v 0.469595 0.000000 2.868520
v 5.982095 0.000000 2.868520
v 5.982095 0.000000 3.131020
v 0.469595 0.000000 3.131020
v 0.469595 2.800000 2.868520
v 5.982095 2.800000 2.868520
v 5.982095 2.800000 3.131020
v 0.469595 2.800000 3.131020
f 48 47 46
f 48 46 45
f 49 50 51
f 49 51 52
f 45 46 50
f 45 50 49
f 46 47 51
f 46 51 50
f 47 48 52
f 47 52 51
f 48 45 49
f 48 49 52

o wall
usemtl wall
v 5.719595 0.000000 -3.900230
v 5.963345 0.000000 -3.900230
v 5.963345 0.000000 3.168520
v 5.719595 0.000000 3.168520
v 5.719595 2.800000 -3.900230
v 5.963345 2.800000 -3.900230
v 5.963345 2.800000 3.168520
v 5.719595 2.800000 3.168520
f 56 55 54
f 56 54 53
f 57 58 59
f 57 59 60
f 53 54 58
f 53 58 57
f 54 55 59
f 54 59 58
f 55 56 60
f 55 60 59
f 56 53 57
f 56 57 60

o wall
usemtl wall
v -3.524155 0.000000 -3.900230
v -2.699155 0.000000 -3.900230
v -2.699155 0.000000 -3.618980
v -3.524155 0.000000 -3.618980
v -3.524155 2.800000 -3.900230
v -2.699155 2.800000 -3.900230
v -2.699155 2.800000 -3.618980
v -3.524155 2.800000 -3.618980
f 64 63 62
f 64 62 61
f 65 66 67
f 65 67 68
f 61 62 66
f 61 66 65
f 62 63 67
f 62 67 66
f 63 64 68
f 63 68 67
f 64 61 65
f 64 65 68

o wall
usemtl wall
v -2.699155 0.000000 -3.900230
v -0.955405 0.000000 -3.900230
v -0.955405 0.000000 -3.618980
v -2.699155 0.000000 -3.618980
v -2.699155 0.900000 -3.900230
v -0.955405 0.900000 -3.900230
v -0.955405 0.900000 -3.618980
v -2.699155 0.900000 -3.618980
f 72 71 70
f 72 70 69
f 73 74 75
f 73 75 76
f 69 70 74
f 69 74 73
f 70 71 75
f 70 75 74
f 71 72 76
f 71 76 75
f 72 69 73
f 72 73 76

o wall
usemtl wall
v -2.699155 2.100000 -3.900230
v -0.955405 2.100000 -3.900230
v -0.955405 2.100000 -3.618980
v -2.699155 2.100000 -3.618980
v -2.699155 2.800000 -3.900230
v -0.955405 2.800000 -3.900230
v -0.955405 2.800000 -3.618980
v -2.699155 2.800000 -3.618980
f 80 79 78
f 80 78 77
f 81 82 83
f 81 83 84
f 77 78 82
f 77 82 81
f 78 79 83
f 78 83 82
f 79 80 84
f 79 84 83
f 80 77 81
f 80 81 84

o Window
usemtl Window
v -2.699155 0.900000 -3.779605
v -0.955405 0.900000 -3.779605
v -0.955405 0.900000 -3.739605
v -2.699155 0.900000 -3.739605
v -2.699155 2.100000 -3.779605
v -0.955405 2.100000 -3.779605
v -0.955405 2.100000 -3.739605
v -2.699155 2.100000 -3.739605
f 88 87 86
f 88 86 85
f 89 90 91
f 89 91 92
f 85 86 90
f 85 90 89
f 86 87 91
f 86 91 90
f 87 88 92
f 87 92 91
f 88 85 89
f 88 89 92

o wall
usemtl wall
v -0.974155 0.000000 -3.900230
v -0.542905 0.000000 -3.900230
v -0.542905 0.000000 -3.618980
v -0.974155 0.000000 -3.618980
v -0.974155 0.900000 -3.900230
v -0.542905 0.900000 -3.900230
v -0.542905 0.900000 -3.618980
v -0.974155 0.900000 -3.618980
f 96 95 94
f 96 94 93
f 97 98 99
f 97 99 100
f 93 94 98
f 93 98 97
f 94 95 99
f 94 99 98
f 95 96 100
f 95 100 99
f 96 93 97
f 96 97 100

o wall
usemtl wall
v -0.974155 2.100000 -3.900230
v -0.542905 2.100000 -3.900230
v -0.542905 2.100000 -3.618980
v -0.974155 2.100000 -3.618980
v -0.974155 2.800000 -3.900230
v -0.542905 2.800000 -3.900230
v -0.542905 2.800000 -3.618980
v -0.974155 2.800000 -3.618980
f 104 103 102
f 104 102 101
f 105 106 107
f 105 107 108
f 101 102 106
f 101 106 105
f 102 103 107
f 102 107 106
f 103 104 108
f 103 108 107
f 104 101 105
f 104 105 108

o Window
usemtl Window
v -0.974155 0.900000 -3.779605
v -0.542905 0.900000 -3.779605
v -0.542905 0.900000 -3.739605
v -0.974155 0.900000 -3.739605
v -0.974155 2.100000 -3.779605
v -0.542905 2.100000 -3.779605
v -0.542905 2.100000 -3.739605
v -0.974155 2.100000 -3.739605
f 112 111 110
f 112 110 109
f 113 114 115
f 113 115 116
f 109 110 114
f 109 114 113
f 110 111 115
f 110 115 114
f 111 112 116
f 111 116 115
f 112 109 113
f 112 113 116

o wall
usemtl wall
v -0.542905 0.000000 -3.900230
v 1.069595 0.000000 -3.900230
v 1.069595 0.000000 -3.618980
v -0.542905 0.000000 -3.618980
v -0.542905 2.800000 -3.900230
v 1.069595 2.800000 -3.900230
v 1.069595 2.800000 -3.618980
v -0.542905 2.800000 -3.618980
f 120 119 118
f 120 118 117
f 121 122 123
f 121 123 124
f 117 118 122
f 117 122 121
f 118 119 123
f 118 123 122
f 119 120 124
f 119 124 123
f 120 117 121
f 120 121 124

o wall
usemtl wall
v 1.069595 2.100000 -3.900230
v 2.269595 2.100000 -3.900230
v 2.269595 2.100000 -3.618980
v 1.069595 2.100000 -3.618980
v 1.069595 2.800000 -3.900230
v 2.269595 2.800000 -3.900230
v 2.269595 2.800000 -3.618980
v 1.069595 2.800000 -3.618980
f 128 127 126
f 128 126 125
f 129 130 131
f 129 131 132
f 125 126 130
f 125 130 129
f 126 127 131
f 126 131 130
f 127 128 132
f 127 132 131
f 128 125 129
f 128 129 132

o Door
usemtl Door
v 1.069595 0.000000 -3.784606
v 2.269595 0.000000 -3.784606
v 2.269595 0.000000 -3.734606
v 1.069595 0.000000 -3.734606
v 1.069595 2.100000 -3.784606
v 2.269595 2.100000 -3.784606
v 2.269595 2.100000 -3.734606
v 1.069595 2.100000 -3.734606
f 136 135 134
f 136 134 133
f 137 138 139
f 137 139 140
f 133 134 138
f 133 138 137
f 134 135 139
f 134 139 138
f 135 136 140
f 135 140 139
f 136 133 137
f 136 137 140

o wall
usemtl wall
v 2.269595 0.000000 -3.900230
v 2.344595 0.000000 -3.900230
v 2.344595 0.000000 -3.618980
v 2.269595 0.000000 -3.618980
v 2.269595 2.800000 -3.900230
v 2.344595 2.800000 -3.900230
v 2.344595 2.800000 -3.618980
v 2.269595 2.800000 -3.618980
f 144 143 142
f 144 142 141
f 145 146 147
f 145 147 148
f 141 142 146
f 141 146 145
f 142 143 147
f 142 147 146
f 143 144 148
f 143 148 147
f 144 141 145
f 144 145 148

o wall
usemtl wall
v 2.344595 0.000000 -3.900230
v 4.969595 0.000000 -3.900230
v 4.969595 0.000000 -3.618980
v 2.344595 0.000000 -3.618980
v 2.344595 0.900000 -3.900230
v 4.969595 0.900000 -3.900230
v 4.969595 0.900000 -3.618980
v 2.344595 0.900000 -3.618980
f 152 151 150
f 152 150 149
f 153 154 155
f 153 155 156
f 149 150 154
f 149 154 153
f 150 151 155
f 150 155 154
f 151 152 156
f 151 156 155
f 152 149 153
f 152 153 156

o wall
usemtl wall
v 2.344595 2.100000 -3.900230
v 4.969595 2.100000 -3.900230
v 4.969595 2.100000 -3.618980
v 2.344595 2.100000 -3.618980
v 2.344595 2.800000 -3.900230
v 4.969595 2.800000 -3.900230
v 4.969595 2.800000 -3.618980
v 2.344595 2.800000 -3.618980
f 160 159 158
f 160 158 157
f 161 162 163
f 161 163 164
f 157 158 162
f 157 162 161
f 158 159 163
f 158 163 162
f 159 160 164
f 159 164 163
f 160 157 161
f 160 161 164

o Window
usemtl Window
v 2.344595 0.900000 -3.779605
v 4.969595 0.900000 -3.779605
v 4.969595 0.900000 -3.739605
v 2.344595 0.900000 -3.739605
v 2.344595 2.100000 -3.779605
v 4.969595 2.100000 -3.779605
v 4.969595 2.100000 -3.739605
v 2.344595 2.100000 -3.739605
f 168 167 166
f 168 166 165
f 169 170 171
f 169 171 172
f 165 166 170
f 165 170 169
f 166 167 171
f 166 171 170
f 167 168 172
f 167 172 171
f 168 165 169
f 168 169 172

o wall
usemtl wall
v 4.969595 0.000000 -3.900230
v 5.850845 0.000000 -3.900230
v 5.850845 0.000000 -3.618980
v 4.969595 0.000000 -3.618980
v 4.969595 2.800000 -3.900230
v 5.850845 2.800000 -3.900230
v 5.850845 2.800000 -3.618980
v 4.969595 2.800000 -3.618980
f 176 175 174
f 176 174 173
f 177 178 179
f 177 179 180
f 173 174 178
f 173 178 177
f 174 175 179
f 174 179 178
f 175 176 180
f 175 180 179
f 176 173 177
f 176 177 180

o wall
usemtl wall
v 0.619595 0.000000 -6.184606
v 5.869595 0.000000 -6.184606
v 5.869595 0.000000 -5.984606
v 0.619595 0.000000 -5.984606
v 0.619595 2.800000 -6.184606
v 5.869595 2.800000 -6.184606
v 5.869595 2.800000 -5.984606
v 0.619595 2.800000 -5.984606
f 184 183 182
f 184 182 181
f 185 186 187
f 185 187 188
f 181 182 186
f 181 186 185
f 182 183 187
f 182 187 186
f 183 184 188
f 183 188 187
f 184 181 185
f 184 185 188

o wall
usemtl wall
v 0.450845 0.000000 2.906019
v 0.675845 0.000000 2.906019
v 0.675845 0.000000 3.787270
v 0.450845 0.000000 3.787270
v 0.450845 2.800000 2.906019
v 0.675845 2.800000 2.906019
v 0.675845 2.800000 3.787270
v 0.450845 2.800000 3.787270
f 192 191 190
f 192 190 189
f 193 194 195
f 193 195 196
f 189 190 194
f 189 194 193
f 190 191 195
f 190 195 194
f 191 192 196
f 191 196 195
f 192 189 193
f 192 193 196

o wall
usemtl wall
v 0.469595 0.000000 -0.881480
v 0.694595 0.000000 -0.881480
v 0.694595 0.000000 1.556020
v 0.469595 0.000000 1.556020
v 0.469595 2.800000 -0.881480
v 0.694595 2.800000 -0.881480
v 0.694595 2.800000 1.556020
v 0.469595 2.800000 1.556020
f 200 199 198
f 200 198 197
f 201 202 203
f 201 203 204
f 197 198 202
f 197 202 201
f 198 199 203
f 198 203 202
f 199 200 204
f 199 204 203
f 200 197 201
f 200 201 204

o wall
usemtl wall
v 5.732095 0.000000 -6.093981
v 5.932095 0.000000 -6.093981
v 5.932095 0.000000 -3.881480
v 5.732095 0.000000 -3.881480
v 5.732095 2.800000 -6.093981
v 5.932095 2.800000 -6.093981
v 5.932095 2.800000 -3.881480
v 5.732095 2.800000 -3.881480
f 208 207 206
f 208 206 205
f 209 210 211
f 209 211 212
f 205 206 210
f 205 210 209
f 206 207 211
f 206 211 210
f 207 208 212
f 207 212 211
f 208 205 209
f 208 209 212

o wall
usemtl wall
v -3.467905 0.000000 1.418519
v -1.817905 0.000000 1.418519
v -1.817905 0.000000 1.618520
v -3.467905 0.000000 1.618520
v -3.467905 2.800000 1.418519
v -1.817905 2.800000 1.418519
v -1.817905 2.800000 1.618520
v -3.467905 2.800000 1.618520
f 216 215 214
f 216 214 213
f 217 218 219
f 217 219 220
f 213 214 218
f 213 218 217
f 214 215 219
f 214 219 218
f 215 216 220
f 215 220 219
f 216 213 217
f 216 217 220

o wall
usemtl wall
v -1.817905 2.100000 1.418519
v -0.842905 2.100000 1.418519
v -0.842905 2.100000 1.618520
v -1.817905 2.100000 1.618520
v -1.817905 2.800000 1.418519
v -0.842905 2.800000 1.418519
v -0.842905 2.800000 1.618520
v -1.817905 2.800000 1.618520
f 224 223 222
f 224 222 221
f 225 226 227
f 225 227 228
f 221 222 226
f 221 226 225
f 222 223 227
f 222 227 226
f 223 224 228
f 223 228 227
f 224 221 225
f 224 225 228

o Door
usemtl Door
v -1.817905 0.000000 1.493520
v -0.842905 0.000000 1.493520
v -0.842905 0.000000 1.543520
v -1.817905 0.000000 1.543520
v -1.817905 2.100000 1.493520
v -0.842905 2.100000 1.493520
v -0.842905 2.100000 1.543520
v -1.817905 2.100000 1.543520
f 232 231 230
f 232 230 229
f 233 234 235
f 233 235 236
f 229 230 234
f 229 234 233
f 230 231 235
f 230 235 234
f 231 232 236
f 231 236 235
f 232 229 233
f 232 233 236

o wall
usemtl wall
v -0.842905 0.000000 1.418519
v 0.638345 0.000000 1.418519
v 0.638345 0.000000 1.618520
v -0.842905 0.000000 1.618520
v -0.842905 2.800000 1.418519
v 0.638345 2.800000 1.418519
v 0.638345 2.800000 1.618520
v -0.842905 2.800000 1.618520
f 240 239 238
f 240 238 237
f 241 242 243
f 241 243 244
f 237 238 242
f 237 242 241
f 238 239 243
f 238 243 242
f 239 240 244
f 239 244 243
f 240 237 241
f 240 241 244

o wall
usemtl wall
v -3.467905 0.000000 -3.937731
v -3.242905 0.000000 -3.937731
v -3.242905 0.000000 3.768519
v -3.467905 0.000000 3.768519
v -3.467905 2.800000 -3.937731
v -3.242905 2.800000 -3.937731
v -3.242905 2.800000 3.768519
v -3.467905 2.800000 3.768519
f 248 247 246
f 248 246 245
f 249 250 251
f 249 251 252
f 245 246 250
f 245 250 249
f 246 247 251
f 246 251 250
f 247 248 252
f 247 252 251
f 248 245 249
f 248 249 252

o wall
usemtl wall
v -3.486655 0.000000 -0.981481
v 0.638345 0.000000 -0.981481
v 0.638345 0.000000 -0.781480
v -3.486655 0.000000 -0.781480
v -3.486655 2.800000 -0.981481
v 0.638345 2.800000 -0.981481
v 0.638345 2.800000 -0.781480
v -3.486655 2.800000 -0.781480
f 256 255 254
f 256 254 253
f 257 258 259
f 257 259 260
f 253 254 258
f 253 258 257
f 254 255 259
f 254 259 258
f 255 256 260
f 255 260 259
f 256 253 257
f 256 257 260

o wall
usemtl wall
v -3.467905 0.000000 -0.937730
v -2.361655 0.000000 -0.937730
v -2.361655 0.000000 -0.112731
v -3.467905 0.000000 -0.112731
v -3.467905 2.800000 -0.937730
v -2.361655 2.800000 -0.937730
v -2.361655 2.800000 -0.112731
v -3.467905 2.800000 -0.112731
f 264 263 262
f 264 262 261
f 265 266 267
f 265 267 268
f 261 262 266
f 261 266 265
f 262 263 267
f 262 267 266
f 263 264 268
f 263 268 267
f 264 261 265
f 264 265 268

o wall
usemtl wall
v 0.469595 0.000000 -3.693980
v 0.694595 0.000000 -3.693980
v 0.694595 0.000000 -3.000231
v 0.469595 0.000000 -3.000231
v 0.469595 2.800000 -3.693980
v 0.694595 2.800000 -3.693980
v 0.694595 2.800000 -3.000231
v 0.469595 2.800000 -3.000231
f 272 271 270
f 272 270 269
f 273 274 275
f 273 275 276
f 269 270 274
f 269 274 273
f 270 271 275
f 270 275 274
f 271 272 276
f 271 276 275
f 272 269 273
f 272 273 276

o wall
usemtl wall
v 0.469595 2.100000 -3.000231
v 0.694595 2.100000 -3.000231
v 0.694595 2.100000 -2.006481
v 0.469595 2.100000 -2.006481
v 0.469595 2.800000 -3.000231
v 0.694595 2.800000 -3.000231
v 0.694595 2.800000 -2.006481
v 0.469595 2.800000 -2.006481
f 280 279 278
f 280 278 277
f 281 282 283
f 281 283 284
f 277 278 282
f 277 282 281
f 278 279 283
f 278 283 282
f 279 280 284
f 279 284 283
f 280 277 281
f 280 281 284

o Door
usemtl Door
v 0.557095 0.000000 -3.000231
v 0.607095 0.000000 -3.000231
v 0.607095 0.000000 -2.006481
v 0.557095 0.000000 -2.006481
v 0.557095 2.100000 -3.000231
v 0.607095 2.100000 -3.000231
v 0.607095 2.100000 -2.006481
v 0.557095 2.100000 -2.006481
f 288 287 286
f 288 286 285
f 289 290 291
f 289 291 292
f 285 286 290
f 285 290 289
f 286 287 291
f 286 291 290
f 287 288 292
f 287 292 291
f 288 285 289
f 288 289 292

o wall
usemtl wall
v 0.469595 0.000000 -2.006481
v 0.694595 0.000000 -2.006481
v 0.694595 0.000000 -0.918981
v 0.469595 0.000000 -0.918981
v 0.469595 2.800000 -2.006481
v 0.694595 2.800000 -2.006481
v 0.694595 2.800000 -0.918981
v 0.469595 2.800000 -0.918981
f 296 295 294
f 296 294 293
f 297 298 299
f 297 299 300
f 293 294 298
f 293 298 297
f 294 295 299
f 294 299 298
f 295 296 300
f 295 300 299
f 296 293 297
f 296 297 300

o wall
usemtl wall
v -3.449155 0.000000 -3.900230
v 0.750845 0.000000 -3.900230
v 0.750845 0.000000 -3.618980
v -3.449155 0.000000 -3.618980
v -3.449155 2.800000 -3.900230
v 0.750845 2.800000 -3.900230
v 0.750845 2.800000 -3.618980
v -3.449155 2.800000 -3.618980
f 304 303 302
f 304 302 301
f 305 306 307
f 305 307 308
f 301 302 306
f 301 306 305
f 302 303 307
f 302 307 306
f 303 304 308
f 303 308 307
f 304 301 305
f 304 305 308

